<svg xmlns="http://www.w3.org/2000/svg" style="display:none">
    <defs>


        <symbol id="icon-pickaxe" viewBox="0 0 54 67.5">
            <path d="M2.29,42.47l4.24,4.24C6.72,46.89,6.97,47,7.24,47s0.52-0.11,0.71-0.29l25.37-25.37l5.5,11c0.14,0.29,0.42,0.49,0.73,0.54  c0.05,0.01,0.11,0.01,0.16,0.01c0.26,0,0.52-0.1,0.71-0.29l11.29-11.29c0.23-0.23,0.33-0.55,0.28-0.87  c-0.05-0.32-0.25-0.59-0.54-0.73l-10.99-5.5l0.67-0.67c0.57-0.57,0.88-1.32,0.88-2.12c0-0.8-0.31-1.55-0.88-2.12l-1.41-1.41  c-1.13-1.13-3.11-1.13-4.24,0l-0.7,0.71c-0.38-0.37-1.04-0.37-1.41,0l-5.65,5.65c-0.39,0.39-0.39,1.02,0,1.41L2.29,41.06  C1.9,41.45,1.9,42.08,2.29,42.47z M49.31,20.86l-9.33,9.33l-4.7-9.41l4.63-4.63L49.31,20.86z M36.88,9.29  c0.38-0.38,1.03-0.38,1.41,0l1.41,1.41c0.19,0.19,0.29,0.44,0.29,0.71c0,0.27-0.1,0.52-0.29,0.7L39,12.82L36.18,10L36.88,9.29z   M34.06,10.71l4.23,4.23l-4.23,4.23l-4.23-4.23L34.06,10.71z M29.12,17.06l2.82,2.82l-6.68,6.68l-4.7-0.94L29.12,17.06z   M18.86,27.32l4.7,0.94l-5.36,5.36l-4.7-0.94L18.86,27.32z M11.8,34.38l4.7,0.94l-9.27,9.27l-2.82-2.82L11.8,34.38z"/>
        </symbol>


        <symbol id="icon-bonfire" viewBox="0 0 54 67.5">
            <path d="M2.13,44.45c-0.13,0.23-0.17,0.5-0.1,0.76l1.62,6.05C3.78,51.71,4.18,52,4.62,52c0.09,0,0.17-0.01,0.26-0.03l22.13-5.93
    l22.11,5.93c0.09,0.02,0.17,0.03,0.26,0.03c0.44,0,0.84-0.29,0.96-0.74l1.62-6.05c0.14-0.53-0.17-1.08-0.71-1.22l-8.29-2.22
    l8.29-2.22c0.26-0.07,0.47-0.24,0.61-0.47s0.17-0.5,0.1-0.76l-0.81-3.02l-0.81-3.02c-0.14-0.53-0.69-0.85-1.22-0.71L27,37.48
    L4.88,31.55c-0.26-0.07-0.53-0.03-0.76,0.1c-0.23,0.13-0.4,0.35-0.47,0.61l-1.62,6.05c-0.07,0.26-0.03,0.53,0.1,0.76
    c0.13,0.23,0.35,0.4,0.61,0.47l8.3,2.23l-8.3,2.22C2.49,44.05,2.27,44.22,2.13,44.45z M49.78,45.66l-0.29,1.09l-11.13-2.98
    c-0.53-0.14-1.08,0.17-1.22,0.71c-0.14,0.53,0.17,1.08,0.71,1.22l11.13,2.98l-0.29,1.09L30.87,45l8.23-2.21L49.78,45.66z
    M4.22,37.86l0.29-1.09l11.13,2.98c0.09,0.02,0.17,0.03,0.26,0.03c0.44,0,0.85-0.29,0.96-0.74c0.14-0.53-0.17-1.08-0.71-1.22
    L5.03,34.84l0.29-1.1l17.81,4.77l-8.23,2.21L4.22,37.86z M48.67,33.75l0.29,1.09l-11.13,2.98c-0.53,0.14-0.85,0.69-0.71,1.22
    c0.12,0.45,0.52,0.74,0.96,0.74c0.09,0,0.17-0.01,0.26-0.03l11.13-2.98l0.29,1.09L5.33,49.78l-0.29-1.09l11.13-2.98
    c0.53-0.14,0.85-0.69,0.71-1.22c-0.14-0.53-0.69-0.85-1.22-0.71L4.52,46.75l-0.29-1.09L48.67,33.75z M30.09,31.86
    c-0.15,0.08-0.28,0.15-0.41,0.19c-0.49,0.16-0.77,0.66-0.66,1.16C29.12,33.68,29.53,34,30,34c0.04,0,0.07,0,0.11-0.01
    c7.89-0.85,10.18-4.54,10.72-7.48c0.96-5.25-3.15-11.78-4.38-12.4c-0.24-0.12-0.51-0.14-0.76-0.06c-0.25,0.08-0.46,0.26-0.58,0.5
    c-0.53,1.05-1.15,1.69-1.86,1.88c-0.37,0.1-0.72,0.07-1.01,0c2.38-8.1-4.52-14.14-4.59-14.2c-0.26-0.22-0.61-0.3-0.94-0.2
    s-0.58,0.36-0.67,0.68c-1.4,4.91-2.2,5.58-4.12,7.19c-0.7,0.59-1.56,1.31-2.62,2.37c-3.35,3.35-2.42,7.87-1.01,10.74
    c-0.89-0.33-1.92-1.09-2.57-1.74c-0.25-0.25-0.61-0.35-0.95-0.26c-0.34,0.09-0.61,0.34-0.71,0.68c-1.12,3.74-0.89,6.71,0.69,8.84
    C16.41,32.81,19.61,34,24,34c0.44,0,0.83-0.29,0.96-0.71c0.13-0.42-0.03-0.88-0.4-1.12c-0.02-0.01-1.45-0.99-2.16-2.5
    c0.98,0.33,2.01,0.54,2.5-0.11c0.41-0.54,0.25-1.15-0.06-2.25c-0.78-2.84-1.34-5.97,1.49-7.82c0.48,1.69,1.38,3.8,3.06,4.88
    c0.49,0.31,1.01,0.49,1.48,0.64c0.49,0.16,0.91,0.3,1.18,0.55c0.42,0.38,0.66,1.07,0.62,1.78C32.59,29.14,31.5,31.04,30.09,31.86z
    M31.49,23.11c-0.38-0.13-0.75-0.24-1.01-0.42c-1.12-0.72-2.02-2.5-2.49-4.88c-0.06-0.3-0.25-0.55-0.51-0.69
    c-0.27-0.14-0.58-0.16-0.86-0.04c-5.86,2.51-4.43,8.11-3.73,10.63c-0.5-0.18-1.05-0.42-1.42-0.61c-0.31-0.15-0.68-0.14-0.97,0.04
    C20.18,27.33,20,27.65,20,28c0,1.55,0.65,2.85,1.38,3.82c-1.96-0.28-3.93-0.97-5.05-2.47c-0.98-1.32-1.23-3.19-0.76-5.56
    c1.26,0.92,3.2,1.93,4.87,1.1c0.26-0.13,0.45-0.37,0.52-0.65c0.07-0.28,0.02-0.58-0.15-0.82c-0.04-0.06-4-5.83-0.11-9.72
    c1-1,1.79-1.67,2.5-2.26c2.01-1.69,3.01-2.66,4.27-6.54c1.72,1.99,4.61,6.37,2.59,11.74c-0.16,0.44,0,0.93,0.38,1.18
    c0.16,0.1,1.57,1,3.3,0.54c0.92-0.24,1.72-0.81,2.4-1.7c1.33,1.93,3.63,6.57,2.56,10.15c-0.64,2.15-2.42,3.66-5.32,4.52
    c0.75-1.16,1.23-2.54,1.29-3.91c0.06-1.31-0.42-2.56-1.27-3.35C32.81,23.54,32.1,23.31,31.49,23.11z"/>
        </symbol>

        <symbol id="icon-compass" viewBox="0 0 54 67.5">
            <path d="M27,2C13.21,2,2,13.21,2,27s11.21,25,25,25s25-11.21,25-25S40.79,2,27,2z M27,50C14.32,50,4,39.68,4,27S14.32,4,27,4  c12.68,0,23,10.32,23,23S39.68,50,27,50z M27.95,15.7C27.82,15.28,27.44,15,27,15s-0.82,0.28-0.95,0.7l-7,22  c-0.13,0.42,0.02,0.88,0.39,1.13s0.85,0.23,1.19-0.04c4.65-3.72,8.1-3.72,12.75,0C33.56,38.93,33.78,39,34,39  c0.2,0,0.4-0.06,0.57-0.18c0.36-0.25,0.52-0.71,0.39-1.13L27.95,15.7z M27,34.01c-1.7,0-3.4,0.5-5.16,1.51L27,19.3l5.16,16.23  C30.4,34.52,28.7,34.01,27,34.01z M41.85,12.15c-0.02-0.02-0.04-0.02-0.06-0.04C38,8.34,32.77,6,27,6c-5.77,0-11,2.34-14.8,6.12  c-0.02,0.01-0.04,0.02-0.05,0.04s-0.02,0.04-0.04,0.05C8.34,16,6,21.23,6,27s2.34,11,6.12,14.8c0.01,0.02,0.02,0.04,0.04,0.05  s0.04,0.02,0.05,0.04C16,45.66,21.23,48,27,48c5.77,0,11-2.34,14.79-6.11c0.02-0.01,0.04-0.02,0.06-0.04  c0.02-0.02,0.02-0.04,0.04-0.06C45.66,37.99,48,32.77,48,27s-2.34-10.99-6.11-14.79C41.87,12.19,41.87,12.17,41.85,12.15z M44,28  h1.95c-0.24,4.48-2.02,8.55-4.85,11.69l-1.4-1.39c-0.39-0.39-1.02-0.39-1.41,0s-0.39,1.02,0,1.41l1.4,1.39  c-3.14,2.82-7.2,4.61-11.69,4.85V44c0-0.55-0.45-1-1-1s-1,0.45-1,1v1.95c-4.48-0.24-8.55-2.02-11.69-4.85l1.4-1.4  c0.39-0.39,0.39-1.02,0-1.41s-1.02-0.39-1.41,0l-1.4,1.4c-2.82-3.14-4.61-7.2-4.85-11.69H10c0.55,0,1-0.45,1-1s-0.45-1-1-1H8.05  c0.24-4.48,2.02-8.55,4.85-11.69l1.4,1.4C14.49,15.9,14.74,16,15,16s0.51-0.1,0.71-0.29c0.39-0.39,0.39-1.02,0-1.41l-1.4-1.4  c3.14-2.82,7.2-4.61,11.69-4.85V10c0,0.55,0.45,1,1,1s1-0.45,1-1V8.05c4.48,0.24,8.55,2.02,11.69,4.85l-1.4,1.39  c-0.39,0.39-0.39,1.02,0,1.41C38.49,15.9,38.74,16,39,16s0.51-0.1,0.71-0.29l1.4-1.39c2.82,3.14,4.61,7.2,4.85,11.69H44  c-0.55,0-1,0.45-1,1S43.45,28,44,28z"/>
        </symbol>

        <symbol id="icon-mountain" viewBox="0 0 54 67.5">
            <path d="M51,48h-2.37L27.9,4.57C27.74,4.22,27.39,4,27,4s-0.74,0.22-0.9,0.57L5.37,48H3c-0.55,0-1,0.45-1,1s0.45,1,1,1h3h42h3
    c0.55,0,1-0.45,1-1S51.55,48,51,48z M27,7.32l5.92,12.41l-1.21,3.85l-1.85-3.09c-0.2-0.33-0.59-0.52-0.97-0.48
    c-0.39,0.04-0.72,0.31-0.84,0.68l-0.14,0.41l-0.99-2.47c-0.15-0.38-0.5-0.6-0.94-0.63c-0.41,0-0.78,0.26-0.93,0.65l-1.94,5.18
    l-1.52-5.21L27,7.32z M7.59,48l12.73-26.66l1.73,5.94c0.12,0.41,0.49,0.7,0.92,0.72c0.01,0,0.03,0,0.04,0
    c0.42,0,0.79-0.26,0.94-0.65l2.09-5.58l1.04,2.6c0.16,0.39,0.54,0.64,0.96,0.63c0.42-0.01,0.79-0.29,0.92-0.68l0.31-0.94l1.88,3.14
    c0.2,0.34,0.58,0.52,0.98,0.48c0.39-0.05,0.72-0.32,0.84-0.69l1.23-3.92L46.41,48H7.59z"/>
        </symbol>


        <symbol id="icon-trail" viewBox="0 0 54 67.5">
            <path d="M51,46h-2.64l0.02-0.08c0.21-0.08,0.39-0.23,0.5-0.44c0.21-0.39,0.13-0.84-0.15-1.15l0.25-1.11
    c0.12-0.54-0.22-1.07-0.76-1.19c-0.53-0.12-1.07,0.22-1.19,0.76l-0.09,0.42c-8.4-5.3-12.87-14.12-13.81-16.16L28.1,15.89l3.82-8.48
    c0.23-0.5,0-1.1-0.5-1.32c-0.5-0.22-1.09,0-1.32,0.5L27,13.45l-3.09-6.86c-0.23-0.5-0.82-0.73-1.32-0.5
    c-0.5,0.23-0.73,0.82-0.5,1.32l3.82,8.48l-5.02,11.16c-0.95,2.03-5.42,10.86-13.81,16.16l-0.09-0.42c-0.12-0.54-0.65-0.88-1.19-0.76
    c-0.54,0.12-0.88,0.65-0.76,1.19l0.25,1.11c-0.28,0.31-0.36,0.76-0.15,1.15c0.12,0.21,0.3,0.36,0.5,0.44L5.64,46H3
    c-0.55,0-1,0.45-1,1s0.45,1,1,1h10c0,0,0,0,0,0c0,0,0,0,0,0h28c0,0,0,0,0,0c0,0,0,0,0,0h10c0.55,0,1-0.45,1-1S51.55,46,51,46z
    M12.35,46H7.69l-0.16-0.72c3.32-1.99,6.07-4.47,8.28-6.95L12.35,46z M28,46v-2h1c0.55,0,1-0.45,1-1s-0.45-1-1-1h-1v-2h1
    c0.55,0,1-0.45,1-1s-0.45-1-1-1h-1v-2h1c0.55,0,1-0.45,1-1s-0.45-1-1-1h-1v-2h1c0.55,0,1-0.45,1-1s-0.45-1-1-1h-1v-2
    c0-0.55-0.45-1-1-1s-1,0.45-1,1v2h-1c-0.55,0-1,0.45-1,1s0.45,1,1,1h1v2h-1c-0.55,0-1,0.45-1,1s0.45,1,1,1h1v2h-1
    c-0.55,0-1,0.45-1,1s0.45,1,1,1h1v2h-1c-0.55,0-1,0.45-1,1s0.45,1,1,1h1v2H14.55l8.04-17.87c0.18-0.38,0.29-0.63,0.32-0.72L27,18.33
    l4.09,9.08c0.04,0.09,0.14,0.33,0.32,0.72L39.45,46H28z M46.31,46h-4.66l-3.46-7.68c2.21,2.48,4.95,4.97,8.28,6.95L46.31,46z"/>
        </symbol>




    </defs>
</svg>
