<svg xmlns="http://www.w3.org/2000/svg" xmlns:xlink="http://www.w3.org/1999/xlink" version="1.1" x="0px" y="0px" viewBox="0 0 54 67.5" style="enable-background:new 0 0 54 54;" xml:space="preserve"><path d="M37.96,18c0.01,0,0.03,0,0.04,0c0.26,0,0.52-0.11,0.71-0.29l4-4c0.39-0.39,0.39-1.02,0-1.41l-4-4  c-0.2-0.2-0.46-0.32-0.75-0.29L30,8.31V5c0-0.81-0.32-1.57-0.87-2.11c-0.72-0.74-1.78-1.05-2.82-0.82C24.97,2.38,24,3.65,24,5.09  v3.44L11.96,9C11.42,9.02,11,9.46,11,10v6c0,0.54,0.42,0.98,0.96,1L24,17.46v3.85L16.04,21c-0.29-0.03-0.55,0.1-0.75,0.29l-4,4  c-0.39,0.39-0.39,1.02,0,1.41l4,4C15.48,30.89,15.74,31,16,31c0.01,0,0.03,0,0.04,0L24,30.69V51c0,0.55,0.45,1,1,1s1-0.45,1-1V30.62  l2-0.08V51c0,0.55,0.45,1,1,1s1-0.45,1-1V30.46L42.04,30c0.54-0.02,0.96-0.46,0.96-1v-6c0-0.54-0.42-0.98-0.96-1L30,21.54v-3.85  L37.96,18z M26,5.09c0-0.51,0.32-0.97,0.75-1.07c0.36-0.08,0.71,0.01,0.96,0.28C27.9,4.49,28,4.73,28,5v3.38l-2,0.08V5.09z   M41,23.96v4.08l-24.6,0.95L13.41,26l2.98-2.98L41,23.96z M26,21.38v-3.85l2,0.08v3.85L26,21.38z M13,15.04v-4.08l24.6-0.95  L40.59,13l-2.98,2.98L13,15.04z M37,14H16c-0.55,0-1-0.45-1-1s0.45-1,1-1h21c0.55,0,1,0.45,1,1S37.55,14,37,14z M17,25h21  c0.55,0,1,0.45,1,1s-0.45,1-1,1H17c-0.55,0-1-0.45-1-1S16.45,25,17,25z M35.95,46.68c0.17,0.52-0.11,1.09-0.63,1.26  C33.06,48.7,33,50.91,33,51.01C32.99,51.55,32.55,52,32,52c0,0,0,0-0.01,0c-0.55,0-0.99-0.45-0.99-1c0-1.29,0.77-3.98,3.68-4.95  C35.21,45.88,35.77,46.16,35.95,46.68z M20.45,48.11C22.88,49.32,23,50.73,23,51c0,0.55-0.45,1-1,1c-0.52,0-0.95-0.4-1-0.91  c-0.03-0.08-0.25-0.6-1.45-1.2c-0.49-0.25-0.69-0.85-0.45-1.34C19.35,48.06,19.95,47.86,20.45,48.11z"/><text x="0" y="69" fill="#000000" font-size="5px" font-weight="bold" font-family="'Helvetica Neue', Helvetica, Arial-Unicode, Arial, Sans-serif">Created by Gofficon</text><text x="0" y="74" fill="#000000" font-size="5px" font-weight="bold" font-family="'Helvetica Neue', Helvetica, Arial-Unicode, Arial, Sans-serif">from the Noun Project</text></svg>