<svg xmlns="http://www.w3.org/2000/svg" xmlns:xlink="http://www.w3.org/1999/xlink" version="1.1" x="0px" y="0px" viewBox="0 0 54 67.5" style="enable-background:new 0 0 54 54;" xml:space="preserve"><path d="M51,46h-2.64l0.02-0.08c0.21-0.08,0.39-0.23,0.5-0.44c0.21-0.39,0.13-0.84-0.15-1.15l0.25-1.11  c0.12-0.54-0.22-1.07-0.76-1.19c-0.53-0.12-1.07,0.22-1.19,0.76l-0.09,0.42c-8.4-5.3-12.87-14.12-13.81-16.16L28.1,15.89l3.82-8.48  c0.23-0.5,0-1.1-0.5-1.32c-0.5-0.22-1.09,0-1.32,0.5L27,13.45l-3.09-6.86c-0.23-0.5-0.82-0.73-1.32-0.5  c-0.5,0.23-0.73,0.82-0.5,1.32l3.82,8.48l-5.02,11.16c-0.95,2.03-5.42,10.86-13.81,16.16l-0.09-0.42c-0.12-0.54-0.65-0.88-1.19-0.76  c-0.54,0.12-0.88,0.65-0.76,1.19l0.25,1.11c-0.28,0.31-0.36,0.76-0.15,1.15c0.12,0.21,0.3,0.36,0.5,0.44L5.64,46H3  c-0.55,0-1,0.45-1,1s0.45,1,1,1h10c0,0,0,0,0,0c0,0,0,0,0,0h28c0,0,0,0,0,0c0,0,0,0,0,0h10c0.55,0,1-0.45,1-1S51.55,46,51,46z   M12.35,46H7.69l-0.16-0.72c3.32-1.99,6.07-4.47,8.28-6.95L12.35,46z M28,46v-2h1c0.55,0,1-0.45,1-1s-0.45-1-1-1h-1v-2h1  c0.55,0,1-0.45,1-1s-0.45-1-1-1h-1v-2h1c0.55,0,1-0.45,1-1s-0.45-1-1-1h-1v-2h1c0.55,0,1-0.45,1-1s-0.45-1-1-1h-1v-2  c0-0.55-0.45-1-1-1s-1,0.45-1,1v2h-1c-0.55,0-1,0.45-1,1s0.45,1,1,1h1v2h-1c-0.55,0-1,0.45-1,1s0.45,1,1,1h1v2h-1  c-0.55,0-1,0.45-1,1s0.45,1,1,1h1v2h-1c-0.55,0-1,0.45-1,1s0.45,1,1,1h1v2H14.55l8.04-17.87c0.18-0.38,0.29-0.63,0.32-0.72L27,18.33  l4.09,9.08c0.04,0.09,0.14,0.33,0.32,0.72L39.45,46H28z M46.31,46h-4.66l-3.46-7.68c2.21,2.48,4.95,4.97,8.28,6.95L46.31,46z"/><text x="0" y="69" fill="#000000" font-size="5px" font-weight="bold" font-family="'Helvetica Neue', Helvetica, Arial-Unicode, Arial, Sans-serif">Created by Gofficon</text><text x="0" y="74" fill="#000000" font-size="5px" font-weight="bold" font-family="'Helvetica Neue', Helvetica, Arial-Unicode, Arial, Sans-serif">from the Noun Project</text></svg>