<svg xmlns="http://www.w3.org/2000/svg" xmlns:xlink="http://www.w3.org/1999/xlink" version="1.1" x="0px" y="0px" viewBox="0 0 54 67.5" style="enable-background:new 0 0 54 54;" xml:space="preserve"><path d="M13,42h13v4.1c-1.96,0.4-3.5,1.94-3.9,3.9h-2.82c0.35-0.59,0.98-1,1.72-1c0.55,0,1-0.45,1-1s-0.45-1-1-1  c-1.86,0-3.41,1.28-3.86,3H15c-0.55,0-1,0.45-1,1s0.45,1,1,1h24c0.55,0,1-0.45,1-1s-0.45-1-1-1h-2.14c-0.45-1.72-2-3-3.86-3  c-0.55,0-1,0.45-1,1s0.45,1,1,1c0.74,0,1.37,0.41,1.72,1H31.9c-0.4-1.96-1.94-3.5-3.9-3.9V42h13c0.37,0,0.7-0.2,0.88-0.52  c0.17-0.32,0.16-0.71-0.03-1.02L35.82,31H38c0.36,0,0.69-0.19,0.87-0.51s0.17-0.7-0.01-1.01L33.77,21H35c0.35,0,0.68-0.19,0.86-0.49  c0.18-0.31,0.18-0.68,0.01-0.99L31.7,12H33c0.38,0,0.72-0.21,0.89-0.55c0.17-0.34,0.13-0.74-0.09-1.05l-6-8  c-0.03-0.04-0.07-0.06-0.11-0.09c-0.03-0.03-0.05-0.08-0.09-0.11c-0.02-0.01-0.04-0.01-0.05-0.02c-0.06-0.04-0.12-0.06-0.19-0.09  c-0.06-0.02-0.11-0.05-0.17-0.06C27.13,2.01,27.06,2.02,27,2.02c-0.06,0-0.13,0-0.19,0.01c-0.06,0.01-0.11,0.04-0.17,0.06  c-0.07,0.03-0.13,0.05-0.19,0.09c-0.02,0.01-0.04,0.01-0.05,0.02c-0.04,0.03-0.06,0.07-0.09,0.11c-0.03,0.03-0.08,0.05-0.11,0.09  l-6,8c-0.23,0.3-0.26,0.71-0.09,1.05S20.62,12,21,12h1.3l-4.17,7.51c-0.17,0.31-0.17,0.69,0.01,0.99C18.32,20.81,18.65,21,19,21  h1.23l-5.09,8.49c-0.19,0.31-0.19,0.69-0.01,1.01C15.31,30.81,15.64,31,16,31h2.18l-6.02,9.46c-0.2,0.31-0.21,0.7-0.03,1.02  C12.3,41.8,12.64,42,13,42z M29.82,50h-5.63c0.41-1.16,1.51-2,2.82-2S29.4,48.84,29.82,50z M20.84,30.54  c0.2-0.31,0.21-0.7,0.03-1.02C20.7,29.2,20.36,29,20,29h-2.23l5.09-8.49c0.19-0.31,0.19-0.69,0.01-1.01C22.69,19.19,22.36,19,22,19  h-1.3l4.17-7.51c0.17-0.31,0.17-0.69-0.01-0.99C24.68,10.19,24.35,10,24,10h-1l4-5.33L31,10h-1c-0.35,0-0.68,0.19-0.86,0.49  c-0.18,0.31-0.18,0.68-0.01,0.99L33.3,19H32c-0.36,0-0.69,0.19-0.87,0.51s-0.17,0.7,0.01,1.01L36.23,29H34  c-0.37,0-0.7,0.2-0.88,0.52c-0.17,0.32-0.16,0.71,0.03,1.02L39.18,40H27H14.82L20.84,30.54z"/><text x="0" y="69" fill="#000000" font-size="5px" font-weight="bold" font-family="'Helvetica Neue', Helvetica, Arial-Unicode, Arial, Sans-serif">Created by Gofficon</text><text x="0" y="74" fill="#000000" font-size="5px" font-weight="bold" font-family="'Helvetica Neue', Helvetica, Arial-Unicode, Arial, Sans-serif">from the Noun Project</text></svg>