<svg xmlns="http://www.w3.org/2000/svg" xmlns:xlink="http://www.w3.org/1999/xlink" version="1.1" x="0px" y="0px" viewBox="0 0 54 67.5" style="enable-background:new 0 0 54 54;" xml:space="preserve"><path d="M52,11v38c0,1.65-1.35,3-3,3H5c-1.65,0-3-1.35-3-3V11c0-1.65,1.35-3,3-3h31c0.55,0,1,0.45,1,1s-0.45,1-1,1H5  c-0.55,0-1,0.45-1,1v1h3c0.55,0,1,0.45,1,1s-0.45,1-1,1H4v35c0,0.55,0.45,1,1,1h44c0.55,0,1-0.45,1-1V14h-3c-0.55,0-1-0.45-1-1  s0.45-1,1-1h3v-1c0-0.55-0.45-1-1-1h-1c-0.55,0-1-0.45-1-1s0.45-1,1-1h1C50.65,8,52,9.35,52,11z M23,44v-8h-8c-0.55,0-1-0.45-1-1v-6  c0-0.55,0.45-1,1-1h8v-8c0-0.55,0.45-1,1-1h6c0.55,0,1,0.45,1,1v8h8c0.55,0,1,0.45,1,1v6c0,0.55-0.45,1-1,1h-8v8c0,0.55-0.45,1-1,1  h-6C23.45,45,23,44.55,23,44z M24,34c0.55,0,1,0.45,1,1v8h4v-8c0-0.55,0.45-1,1-1h8v-4h-8c-0.55,0-1-0.45-1-1v-8h-4v8  c0,0.55-0.45,1-1,1h-8v4H24z M25,14c0.55,0,1-0.45,1-1s-0.45-1-1-1h-2c-0.55,0-1,0.45-1,1s0.45,1,1,1H25z M31,14c0.55,0,1-0.45,1-1  s-0.45-1-1-1h-2c-0.55,0-1,0.45-1,1s0.45,1,1,1H31z M37,14c0.55,0,1-0.45,1-1s-0.45-1-1-1h-2c-0.55,0-1,0.45-1,1s0.45,1,1,1H37z   M40.02,13.2l-2-10c-0.06-0.29,0.02-0.6,0.21-0.83S38.7,2,39,2h6c0.3,0,0.58,0.13,0.77,0.37s0.27,0.54,0.21,0.83l-2,10  C43.89,13.66,43.48,14,43,14h-2C40.52,14,40.11,13.66,40.02,13.2z M43.18,7h-2.36l1,5h0.36L43.18,7z M40.22,4l0.2,1h3.16l0.2-1  H40.22z M19,14c0.55,0,1-0.45,1-1s-0.45-1-1-1h-2c-0.55,0-1,0.45-1,1s0.45,1,1,1H19z M13,12h-2c-0.55,0-1,0.45-1,1s0.45,1,1,1h2  c0.55,0,1-0.45,1-1S13.55,12,13,12z"/><text x="0" y="69" fill="#000000" font-size="5px" font-weight="bold" font-family="'Helvetica Neue', Helvetica, Arial-Unicode, Arial, Sans-serif">Created by Gofficon</text><text x="0" y="74" fill="#000000" font-size="5px" font-weight="bold" font-family="'Helvetica Neue', Helvetica, Arial-Unicode, Arial, Sans-serif">from the Noun Project</text></svg>