<svg xmlns="http://www.w3.org/2000/svg" xmlns:xlink="http://www.w3.org/1999/xlink" version="1.1" x="0px" y="0px" viewBox="0 0 54 67.5" style="enable-background:new 0 0 54 54;" xml:space="preserve"><path d="M49,40V30c0-11.01-8.13-20.15-18.7-21.75C30.74,7.61,31,6.83,31,6c0-2.21-1.79-4-4-4s-4,1.79-4,4c0,0.83,0.26,1.61,0.7,2.25  C13.13,9.85,5,18.99,5,30v10c-1.65,0-3,1.35-3,3v6c0,1.65,1.35,3,3,3h44c1.65,0,3-1.35,3-3v-6C52,41.35,50.65,40,49,40z M27,4  c1.1,0,2,0.9,2,2s-0.9,2-2,2s-2-0.9-2-2S25.9,4,27,4z M7,30c0-11.03,8.97-20,20-20s20,8.97,20,20v10H7V30z M50,49c0,0.55-0.45,1-1,1  H5c-0.55,0-1-0.45-1-1v-6c0-0.55,0.45-1,1-1h1h42h1c0.55,0,1,0.45,1,1V49z M35,46c0,0.55-0.45,1-1,1H20c-0.55,0-1-0.45-1-1  s0.45-1,1-1h14C34.55,45,35,45.45,35,46z"/><text x="0" y="69" fill="#000000" font-size="5px" font-weight="bold" font-family="'Helvetica Neue', Helvetica, Arial-Unicode, Arial, Sans-serif">Created by Gofficon</text><text x="0" y="74" fill="#000000" font-size="5px" font-weight="bold" font-family="'Helvetica Neue', Helvetica, Arial-Unicode, Arial, Sans-serif">from the Noun Project</text></svg>