<svg xmlns="http://www.w3.org/2000/svg" xmlns:xlink="http://www.w3.org/1999/xlink" version="1.1" x="0px" y="0px" viewBox="0 0 54 67.5" style="enable-background:new 0 0 54 54;" xml:space="preserve"><path d="M15.44,35.11c2.44,3.67,4.88,7.43,7.24,11.07c1.16,1.79,2.32,3.58,3.49,5.37c0,0,0,0,0.01,0.01c0,0.01,0.01,0.01,0.01,0.02  c0.07,0.1,0.15,0.17,0.24,0.24c0.01,0.01,0.02,0.02,0.03,0.03c0.01,0.01,0.02,0.01,0.03,0.02c0.06,0.03,0.11,0.06,0.17,0.08  c0.03,0.01,0.05,0.02,0.08,0.03C26.82,51.98,26.9,52,26.99,52c0,0,0.01,0,0.01,0c0,0,0,0,0,0s0,0,0,0c0,0,0.01,0,0.01,0  c0.08,0,0.17-0.01,0.25-0.04c0.03-0.01,0.05-0.02,0.08-0.03c0.06-0.02,0.12-0.05,0.17-0.08c0.01-0.01,0.02-0.01,0.03-0.02  c0.01-0.01,0.02-0.02,0.03-0.03c0.09-0.06,0.17-0.14,0.24-0.24c0-0.01,0.01-0.01,0.01-0.02c0,0,0,0,0.01-0.01  c1.17-1.79,2.33-3.58,3.49-5.37c2.36-3.64,4.8-7.4,7.24-11.07l0.62-0.93C42.04,29.91,45,25.49,45,20c0-9.93-8.08-18-18-18  S9,10.07,9,20c0,5.49,2.96,9.91,5.82,14.18L15.44,35.11z M27,4c8.82,0,16,7.18,16,16c0,4.88-2.78,9.04-5.48,13.07L36.9,34  c-2.44,3.68-4.89,7.44-7.25,11.08c-0.88,1.36-1.76,2.72-2.65,4.08c-0.88-1.36-1.77-2.72-2.65-4.08c-2.36-3.64-4.8-7.41-7.25-11.08  l-0.63-0.94C13.78,29.04,11,24.88,11,20C11,11.18,18.18,4,27,4z M27,31c6.62,0,12-5.38,12-12S33.62,7,27,7s-12,5.38-12,12  S20.38,31,27,31z M27,9c5.51,0,10,4.49,10,10s-4.49,10-10,10s-10-4.49-10-10S21.49,9,27,9z"/><text x="0" y="69" fill="#000000" font-size="5px" font-weight="bold" font-family="'Helvetica Neue', Helvetica, Arial-Unicode, Arial, Sans-serif">Created by Gofficon</text><text x="0" y="74" fill="#000000" font-size="5px" font-weight="bold" font-family="'Helvetica Neue', Helvetica, Arial-Unicode, Arial, Sans-serif">from the Noun Project</text></svg>