<svg xmlns="http://www.w3.org/2000/svg" xmlns:xlink="http://www.w3.org/1999/xlink" version="1.1" x="0px" y="0px" viewBox="0 0 54 67.5" style="enable-background:new 0 0 54 54;" xml:space="preserve"><path d="M25,38v-2h-5c-0.55,0-1-0.45-1-1s0.45-1,1-1h5v-2h-5c-0.55,0-1-0.45-1-1s0.45-1,1-1h5v-6h-5c-0.55,0-1-0.45-1-1s0.45-1,1-1  h5v-2h-5c-0.55,0-1-0.45-1-1s0.45-1,1-1h5v-2h-5c-0.55,0-1-0.45-1-1s0.45-1,1-1h5v-2c0-0.55,0.45-1,1-1s1,0.45,1,1v30  c0,0.55-0.45,1-1,1s-1-0.45-1-1v-2h-5c-0.55,0-1-0.45-1-1s0.45-1,1-1H25z M39,14h-1c-0.55,0-1,0.45-1,1s0.45,1,1,1h1  c6.07,0,11,4.93,11,11s-4.93,11-11,11h-3v-2h3c4.96,0,9-4.04,9-9s-4.04-9-9-9h-1c-0.55,0-1,0.45-1,1s0.45,1,1,1h1c3.86,0,7,3.14,7,7  s-3.14,7-7,7h-3V12.41l4.71-4.71c0.39-0.39,0.39-1.02,0-1.41s-1.02-0.39-1.41,0l-5,5C34.11,11.48,34,11.73,34,12v2h-5  c-0.55,0-1,0.45-1,1s0.45,1,1,1h5v2h-5c-0.55,0-1,0.45-1,1s0.45,1,1,1h5v2h-5c-0.55,0-1,0.45-1,1s0.45,1,1,1h5v6h-5  c-0.55,0-1,0.45-1,1s0.45,1,1,1h5v2h-5c-0.55,0-1,0.45-1,1s0.45,1,1,1h5v2h-5c-0.55,0-1,0.45-1,1s0.45,1,1,1h5v2c0,0.55,0.45,1,1,1  s1-0.45,1-1v-2h3c7.17,0,13-5.83,13-13S46.17,14,39,14z M39,30h-1c-0.55,0-1,0.45-1,1s0.45,1,1,1h1c2.76,0,5-2.24,5-5s-2.24-5-5-5  h-1c-0.55,0-1,0.45-1,1s0.45,1,1,1h1c1.65,0,3,1.35,3,3S40.65,30,39,30z M18,12v30c0,0.18-0.05,0.36-0.14,0.51l-3,5  C14.67,47.83,14.34,48,14,48c-0.18,0-0.35-0.05-0.51-0.14c-0.47-0.28-0.63-0.9-0.34-1.37L16,41.72V40h-1C7.83,40,2,34.17,2,27  s5.83-13,13-13h1v-2c0-0.55,0.45-1,1-1S18,11.45,18,12z M16,24h-1c-1.65,0-3,1.35-3,3s1.35,3,3,3h1V24z M16,20h-1  c-3.86,0-7,3.14-7,7s3.14,7,7,7h1v-2h-1c-2.76,0-5-2.24-5-5s2.24-5,5-5h1V20z M16,16h-1C8.93,16,4,20.93,4,27s4.93,11,11,11h1v-2h-1  c-4.96,0-9-4.04-9-9s4.04-9,9-9h1V16z"/><text x="0" y="69" fill="#000000" font-size="5px" font-weight="bold" font-family="'Helvetica Neue', Helvetica, Arial-Unicode, Arial, Sans-serif">Created by Gofficon</text><text x="0" y="74" fill="#000000" font-size="5px" font-weight="bold" font-family="'Helvetica Neue', Helvetica, Arial-Unicode, Arial, Sans-serif">from the Noun Project</text></svg>