<svg xmlns="http://www.w3.org/2000/svg" xmlns:xlink="http://www.w3.org/1999/xlink" version="1.1" x="0px" y="0px" viewBox="0 0 54 67.5" style="enable-background:new 0 0 54 54;" xml:space="preserve"><path d="M51.55,29.17l-3-2c-0.24-0.16-0.54-0.21-0.81-0.13c-0.28,0.07-0.51,0.26-0.64,0.52c-2.11,4.22-5.81,4.71-7.32,4.73  c-0.29-2.01-0.89-3.94-1.79-5.74V16c0-6.34-4.94-11.53-11.17-11.96C26.43,2.86,25.32,2,24,2h-6c-1.32,0-2.43,0.86-2.83,2.04  C8.94,4.47,4,9.66,4,16v10.5c-1.28,2.56-2,5.45-2,8.5v11.53c0,1.31,0.87,2.49,2.11,2.87C9.72,51.12,15.41,52,21,52  c0.01,0,0.02,0,0.03,0c5.61,0,11.29-0.87,16.87-2.59c1.24-0.38,2.1-1.56,2.1-2.87v-3.79c10.83-3.33,11.95-12.25,11.99-12.64  C52.04,29.74,51.87,29.38,51.55,29.17z M18,4h6c0.55,0,1,0.45,1,1c0,0,0,0,0,0s0,0,0,0c0,0.55-0.45,1-1,1h-6c-0.55,0-1-0.45-1-1  S17.45,4,18,4z M6,16c0-5.24,4.06-9.55,9.2-9.96C15.62,7.18,16.71,8,18,8h6c1.29,0,2.38-0.82,2.8-1.96C31.94,6.45,36,10.76,36,16  v7.36c-0.48-0.62-1-1.23-1.56-1.8c-2.84-2.83-6.52-4.68-10.44-5.31v-0.27c0-1.64-1.34-2.98-3.02-2.98C19.34,13,18,14.34,18,15.98  v0.28c-4.9,0.78-9.13,3.39-12,7.09V16z M23,19c0.46,0,0.83-0.31,0.95-0.73c2.73,0.48,5.32,1.64,7.51,3.35  c-6.95,3.14-13.99,3.14-20.94-0.01c2.14-1.68,4.71-2.84,7.54-3.33C18.18,18.69,18.54,19,19,19H23z M20,17v-1.02  c0-0.54,0.44-0.98,1.02-0.98c0.54,0,0.98,0.44,0.98,0.98V17H20z M38,46.53c0,0.44-0.28,0.83-0.69,0.96  C31.92,49.16,26.44,50,21.03,50c-0.01,0-0.02,0-0.03,0c-5.4,0-10.88-0.85-16.31-2.51C4.29,47.37,4,46.97,4,46.53v-1.15  c5.62,1.73,11.28,2.61,16.94,2.61c5.7,0,11.4-0.89,17.06-2.65V46.53z M38,43.24c-11.28,3.63-22.71,3.64-34,0.04V35  c0-4.64,1.87-8.86,4.91-11.94c4.01,1.95,8.05,2.93,12.09,2.93c4.04,0,8.08-0.98,12.1-2.93c1.21,1.23,2.2,2.6,2.98,4.08  c0.01,0.01,0.01,0.03,0.02,0.04C37.33,29.57,38,32.24,38,35V43.24z M40,40.64V35c0-0.25-0.03-0.49-0.04-0.74  c1.35-0.05,3.76-0.43,5.95-2.12l2.54,1.69c0.03,0.02,0.06,0.03,0.1,0.04C47.21,36.22,44.69,39.03,40,40.64z M49.4,32.07l-2.01-1.34  c0.33-0.39,0.66-0.81,0.96-1.29l1.55,1.04C49.81,30.85,49.65,31.41,49.4,32.07z M9.71,26.29c0.39,0.39,0.39,1.02,0,1.41  C8.03,29.38,8,32.97,8,33c0,0.55-0.45,1-1,1h0c-0.55,0-1-0.45-1-1c0-0.18,0.03-4.44,2.29-6.71C8.69,25.9,9.32,25.9,9.71,26.29z"/><text x="0" y="69" fill="#000000" font-size="5px" font-weight="bold" font-family="'Helvetica Neue', Helvetica, Arial-Unicode, Arial, Sans-serif">Created by Gofficon</text><text x="0" y="74" fill="#000000" font-size="5px" font-weight="bold" font-family="'Helvetica Neue', Helvetica, Arial-Unicode, Arial, Sans-serif">from the Noun Project</text></svg>