<svg xmlns="http://www.w3.org/2000/svg" xmlns:xlink="http://www.w3.org/1999/xlink" version="1.1" x="0px" y="0px" viewBox="0 0 54 67.5" style="enable-background:new 0 0 54 54;" xml:space="preserve"><path d="M47.41,2.29c-0.39-0.39-1.02-0.39-1.41,0l-7.16,7.16c-0.39,0.39-0.39,1.02,0,1.41l0.01,0.01L23.02,26.7  c-0.98-0.65-2.32-0.55-3.18,0.31c-0.86,0.86-0.97,2.2-0.31,3.18l-1.49,1.49l-3.59-3.59c-0.39-0.39-1.02-0.39-1.41,0L2.29,38.83  c-0.22,0.22-0.33,0.54-0.28,0.85l1.43,10.03c0.06,0.44,0.41,0.79,0.85,0.85l10.03,1.43C14.37,52,14.42,52,14.46,52  c0.26,0,0.52-0.1,0.71-0.29l10.75-10.75c0.39-0.39,0.39-1.02,0-1.41l-3.59-3.59l1.49-1.49c0.42,0.28,0.91,0.42,1.4,0.42  c0.65,0,1.29-0.25,1.78-0.74c0.86-0.86,0.97-2.2,0.31-3.18l15.81-15.82l0.01,0.01c0.19,0.19,0.44,0.29,0.71,0.29  s0.52-0.11,0.71-0.29l7.16-7.16C51.89,7.82,52,7.56,52,7.3s-0.11-0.52-0.29-0.71L47.41,2.29z M23.79,40.25l-9.69,9.69l-8.79-1.26  l-1.26-8.79l9.69-9.69L23.79,40.25z M20.91,34.54l-1.45-1.45l1.45-1.45l1.45,1.45L20.91,34.54z M25.58,32.74  c-0.2,0.2-0.54,0.2-0.74,0l-0.36-0.36l-2.87-2.87l-0.36-0.36c-0.1-0.1-0.15-0.23-0.15-0.37s0.05-0.27,0.15-0.37  c0.1-0.1,0.23-0.15,0.37-0.15s0.27,0.05,0.37,0.15l0.36,0.36c0,0,0,0,0,0l2.87,2.87c0,0,0,0,0,0l0.36,0.36  C25.78,32.21,25.78,32.54,25.58,32.74z M25.93,29.53l-1.45-1.45l15.78-15.78l1.45,1.45L25.93,29.53z M43.84,13.05L43.84,13.05  l-2.88-2.88c0,0,0,0,0,0l-0.01-0.01l5.75-5.75l0.74,0.74l-1.44,1.44c-0.39,0.39-0.39,1.02,0,1.41c0.2,0.2,0.45,0.29,0.71,0.29  s0.51-0.1,0.71-0.29l1.44-1.44l0.74,0.74L43.84,13.05z M14.45,33.82l2.87,2.87c0.39,0.39,0.39,1.02,0,1.41s-1.02,0.39-1.41,0  l-2.16-2.16L8.38,41.3L9,44.36c0.11,0.54-0.24,1.07-0.78,1.18c-0.07,0.01-0.13,0.02-0.2,0.02c-0.47,0-0.88-0.33-0.98-0.8l-0.72-3.58  c-0.07-0.33,0.04-0.67,0.27-0.9l6.45-6.45C13.43,33.42,14.06,33.42,14.45,33.82z"/><text x="0" y="69" fill="#000000" font-size="5px" font-weight="bold" font-family="'Helvetica Neue', Helvetica, Arial-Unicode, Arial, Sans-serif">Created by Gofficon</text><text x="0" y="74" fill="#000000" font-size="5px" font-weight="bold" font-family="'Helvetica Neue', Helvetica, Arial-Unicode, Arial, Sans-serif">from the Noun Project</text></svg>