<svg xmlns="http://www.w3.org/2000/svg" xmlns:xlink="http://www.w3.org/1999/xlink" version="1.1" x="0px" y="0px" viewBox="0 0 54 67.5" style="enable-background:new 0 0 54 54;" xml:space="preserve"><path d="M49,24h-4.13l-1.7-12.49C42.43,6.09,37.75,2,32.27,2H21.73c-5.47,0-10.16,4.09-10.9,9.51L9.13,24H5c-1.65,0-3,1.35-3,3v4  c0,1.65,1.35,3,3,3h5.05c0.46,7.85,6.29,14.4,14.06,15.74C24.43,51.03,25.6,52,27,52c1.18,0,2.2-0.7,2.69-1.69  C31.23,50.97,34.09,52,37,52c0.55,0,1-0.45,1-1s-0.45-1-1-1c-1.66,0-3.34-0.4-4.7-0.85C38.84,47,43.54,41.02,43.95,34H49  c1.65,0,3-1.35,3-3v-4C52,25.35,50.65,24,49,24z M12.81,11.78C13.42,7.35,17.25,4,21.73,4h10.54c4.48,0,8.31,3.35,8.92,7.78  L42.04,18H11.96L12.81,11.78z M11.69,20h30.62l0.55,4H11.15L11.69,20z M27,50c-0.55,0-1-0.45-1-1s0.45-1,1-1s1,0.45,1,1  S27.55,50,27,50z M29.71,47.74C29.24,46.72,28.2,46,27,46s-2.24,0.72-2.71,1.74C17.55,46.51,12.5,40.82,12.05,34h29.91  C41.5,40.82,36.45,46.51,29.71,47.74z M50,28H32c-0.55,0-1,0.45-1,1s0.45,1,1,1h18v1c0,0.55-0.45,1-1,1H5c-0.55,0-1-0.45-1-1v-1h18  c0.55,0,1-0.45,1-1s-0.45-1-1-1H4v-1c0-0.55,0.45-1,1-1h5h34h5c0.55,0,1,0.45,1,1V28z M29,29c0,1.1-0.9,2-2,2s-2-0.9-2-2s0.9-2,2-2  S29,27.9,29,29z"/><text x="0" y="69" fill="#000000" font-size="5px" font-weight="bold" font-family="'Helvetica Neue', Helvetica, Arial-Unicode, Arial, Sans-serif">Created by Gofficon</text><text x="0" y="74" fill="#000000" font-size="5px" font-weight="bold" font-family="'Helvetica Neue', Helvetica, Arial-Unicode, Arial, Sans-serif">from the Noun Project</text></svg>