<svg xmlns="http://www.w3.org/2000/svg" xmlns:xlink="http://www.w3.org/1999/xlink" version="1.1" x="0px" y="0px" viewBox="0 0 54 67.5" style="enable-background:new 0 0 54 54;" xml:space="preserve"><path d="M37,16.18V5c0-1.65-1.35-3-3-3H20c-1.65,0-3,1.35-3,3v11.18c-1.16,0.41-2,1.51-2,2.82s0.84,2.4,2,2.82V49c0,1.65,1.35,3,3,3  h14c1.65,0,3-1.35,3-3V21.82c1.16-0.41,2-1.51,2-2.82S38.16,16.6,37,16.18z M19,5c0-0.55,0.45-1,1-1h14c0.55,0,1,0.45,1,1v11H19V5z   M35,49c0,0.55-0.45,1-1,1H20c-0.55,0-1-0.45-1-1V22h16V49z M36,20H18c-0.55,0-1-0.45-1-1s0.45-1,1-1h18c0.55,0,1,0.45,1,1  S36.55,20,36,20z M21,43V25c0-0.55,0.45-1,1-1s1,0.45,1,1v18c0,0.55-0.45,1-1,1S21,43.55,21,43z M21,47v-1c0-0.55,0.45-1,1-1  s1,0.45,1,1v1c0,0.55-0.45,1-1,1S21,47.55,21,47z M23,7v2c0,0.55-0.45,1-1,1s-1-0.45-1-1V7c0-0.55,0.45-1,1-1S23,6.45,23,7z M23,12  v1c0,0.55-0.45,1-1,1s-1-0.45-1-1v-1c0-0.55,0.45-1,1-1S23,11.45,23,12z"/><text x="0" y="69" fill="#000000" font-size="5px" font-weight="bold" font-family="'Helvetica Neue', Helvetica, Arial-Unicode, Arial, Sans-serif">Created by Gofficon</text><text x="0" y="74" fill="#000000" font-size="5px" font-weight="bold" font-family="'Helvetica Neue', Helvetica, Arial-Unicode, Arial, Sans-serif">from the Noun Project</text></svg>