<svg xmlns="http://www.w3.org/2000/svg" xmlns:xlink="http://www.w3.org/1999/xlink" version="1.1" x="0px" y="0px" viewBox="0 0 54 67.5" style="enable-background:new 0 0 54 54;" xml:space="preserve"><path d="M17,9.3v1.81c0,0.95,0.44,1.83,1.19,2.4c0.75,0.57,1.7,0.74,2.61,0.49c1.32-0.38,3.08-0.7,5.22-0.77  C26.01,13.54,26,13.8,26,14v7c0,1.96-0.95,5.42-1.52,7.32c-2.51-1.66-6.62-3.08-7.16-3.27c-0.49-0.17-1.04,0.08-1.24,0.56  c-0.2,0.48,0,1.04,0.46,1.28c1.71,0.88,6.72,6.58,7.67,9.43c0.68,2.03-0.25,9.79-1.04,14.52c-0.05,0.29,0.03,0.59,0.22,0.81  S23.87,52,24.16,52h7c0.3,0,0.58-0.13,0.77-0.36c0.19-0.23,0.27-0.53,0.22-0.82c-0.02-0.11-1.95-10.87-1-15.62  c0.75-3.75,0.42-6.42,0.18-8.38c-0.09-0.71-0.16-1.32-0.16-1.82c0-2.03-0.96-10.74-1.01-11.16l-0.07-0.41  c1.3,0.16,2.7,0.41,4.19,0.8c0.25,0.06,0.5,0.1,0.75,0.1c0.65,0,1.28-0.21,1.81-0.62c0.75-0.58,1.17-1.45,1.17-2.39V9.47  c0-1.33-0.9-2.52-2.19-2.89c-2.42-0.7-4.62-1.08-6.6-1.25L29,2.91C28.95,2.4,28.53,2.01,28.01,2c0,0-0.01,0-0.01,0  c-0.51,0-0.94,0.38-0.99,0.89c0,0-0.11,0.97-0.26,2.34c-3.55,0-6.18,0.68-7.76,1.26C17.8,6.92,17,8.05,17,9.3z M25.33,50  c0.5-3.23,1.67-11.64,0.78-14.32c-0.58-1.75-2.43-4.39-4.35-6.62c1.06,0.54,2.01,1.11,2.54,1.64c0.25,0.25,0.6,0.34,0.94,0.27  c0.34-0.08,0.61-0.33,0.72-0.66C26.03,30.07,28,24.13,28,21v-7c0-0.19,0.01-0.44,0.03-0.75l0.14,0.86  c0.01,0.09,0.99,8.97,0.99,10.89c0,0.62,0.08,1.29,0.18,2.07c0.22,1.82,0.53,4.3-0.16,7.74c-0.84,4.2,0.31,12.18,0.8,15.2H25.33z   M19,9.3c0-0.42,0.27-0.8,0.68-0.95c2.49-0.91,7.82-2.1,15.58,0.14C35.69,8.63,36,9.03,36,9.47v1.84c0,0.32-0.14,0.61-0.4,0.81  c-0.14,0.11-0.44,0.28-0.83,0.17c-2.86-0.74-5.39-1.03-7.6-1.06c-0.01,0-0.02-0.01-0.02-0.01c-0.01,0-0.02,0.01-0.04,0.01  c-2.87-0.04-5.19,0.36-6.86,0.84c-0.3,0.08-0.61,0.03-0.86-0.16c-0.25-0.19-0.4-0.49-0.4-0.8V9.3z M21.05,10.32  c-0.17-0.52,0.11-1.09,0.63-1.26c0.26-0.09,6.41-2.09,11.69,0.02c0.51,0.21,0.76,0.79,0.56,1.3C33.77,10.76,33.4,11,33,11  c-0.12,0-0.25-0.02-0.37-0.07c-4.59-1.84-10.26,0-10.31,0.02C21.79,11.12,21.23,10.84,21.05,10.32z"/><text x="0" y="69" fill="#000000" font-size="5px" font-weight="bold" font-family="'Helvetica Neue', Helvetica, Arial-Unicode, Arial, Sans-serif">Created by Gofficon</text><text x="0" y="74" fill="#000000" font-size="5px" font-weight="bold" font-family="'Helvetica Neue', Helvetica, Arial-Unicode, Arial, Sans-serif">from the Noun Project</text></svg>