<svg xmlns="http://www.w3.org/2000/svg" xmlns:xlink="http://www.w3.org/1999/xlink" version="1.1" x="0px" y="0px" viewBox="0 0 54 67.5" style="enable-background:new 0 0 54 54;" xml:space="preserve"><path d="M13,26h-3c-0.55,0-1,0.45-1,1v24c0,0.55,0.45,1,1,1h24c0.55,0,1-0.45,1-1V29c0.88,0,1.67-0.39,2.22-1H44c0.55,0,1-0.45,1-1  V3c0-0.55-0.45-1-1-1h-9c-0.55,0-1,0.45-1,1v20.18c-1.16,0.41-2,1.51-2,2.82h-1v-3c0-0.55-0.45-1-1-1h-2v-3c0-0.55-0.45-1-1-1H17  c-0.55,0-1,0.45-1,1v3h-2c-0.55,0-1,0.45-1,1V26z M36,4h7v22h-5c0-1.3-0.84-2.4-2-2.82V4z M35,25c0.55,0,1,0.45,1,1s-0.45,1-1,1  s-1-0.45-1-1S34.45,25,35,25z M27,24h2v2h-2V24z M18,20h8v2h-8V20z M25,24v2h-2v-2H25z M21,24v2h-2v-2H21z M15,24h2v2h-2V24z M14,28  h16h2.78c0.07,0.08,0.14,0.15,0.22,0.22V50H11V28H14z M25.81,14.22c0.93-1.37,0.38-4.48-0.34-6.73c-0.93,0.43-1.77,0.47-2.51,0.1  c-0.93-0.46-1.41-1.45-1.67-2.4c-1.97,2.88,0.2,5.81,0.5,6.19c0.19,0.24,0.26,0.54,0.19,0.84c-0.07,0.29-0.26,0.54-0.53,0.68  c-1.43,0.71-2.83,0.1-3.9-0.79c-0.06,0.71,0.02,1.41,0.38,1.93C18.6,14.97,19.99,15,20.01,15c0.55,0.01,0.99,0.46,0.99,1.01  c0,0.55-0.45,0.99-1,0.99c-0.1,0-2.4-0.02-3.68-1.79c-0.96-1.33-1.05-3.18-0.27-5.52c0.12-0.36,0.44-0.62,0.82-0.67  c0.38-0.05,0.75,0.12,0.96,0.44c0.01,0.01,0.61,0.87,1.34,1.38c-0.21-0.47-0.4-1.02-0.53-1.62c-0.4-1.87-0.25-4.6,2.73-6.99  c0.3-0.24,0.71-0.29,1.06-0.12C22.78,2.26,23,2.61,23,3c0,0.97,0.31,2.53,0.85,2.8c0.28,0.14,0.86-0.08,1.55-0.6  c0.25-0.19,0.57-0.25,0.87-0.16c0.3,0.08,0.54,0.3,0.66,0.59c0.27,0.68,2.58,6.7,0.54,9.72C26.96,16.1,25.94,17,24,17  c-0.55,0-1-0.45-1-1s0.45-1,1-1C25.15,15,25.59,14.56,25.81,14.22z"/><text x="0" y="69" fill="#000000" font-size="5px" font-weight="bold" font-family="'Helvetica Neue', Helvetica, Arial-Unicode, Arial, Sans-serif">Created by Gofficon</text><text x="0" y="74" fill="#000000" font-size="5px" font-weight="bold" font-family="'Helvetica Neue', Helvetica, Arial-Unicode, Arial, Sans-serif">from the Noun Project</text></svg>