<svg xmlns="http://www.w3.org/2000/svg" xmlns:xlink="http://www.w3.org/1999/xlink" version="1.1" x="0px" y="0px" viewBox="0 0 54 67.5" style="enable-background:new 0 0 54 54;" xml:space="preserve"><path d="M18.2,24.59c-0.33-0.44-0.24-1.07,0.2-1.4c0.44-0.33,1.07-0.24,1.4,0.2c1.14,1.52,2.77,2.67,4.58,3.22  c0.53,0.16,0.83,0.72,0.67,1.25c-0.13,0.43-0.53,0.71-0.96,0.71c-0.1,0-0.19-0.01-0.29-0.04C21.58,27.85,19.6,26.45,18.2,24.59z   M26.46,7.67C26,8.36,26,8.61,26,10c0,0.55,0.45,1,1,1s1-0.45,1-1c0-0.54,0-0.97,0.02-1.05c0.02-0.05,0.06-0.1,0.11-0.17  c0.16-0.24,0.4-0.61,0.77-1.33c1.31-2.61-1.08-5.05-1.19-5.15c-0.39-0.39-1.02-0.39-1.41,0S25.9,3.31,26.29,3.7  c0.01,0.01,1.48,1.53,0.82,2.85C26.8,7.16,26.61,7.46,26.46,7.67z M32.46,7.67C32,8.36,32,8.61,32,10c0,0.55,0.45,1,1,1s1-0.45,1-1  c0-0.54,0-0.97,0.02-1.05c0.02-0.05,0.06-0.1,0.11-0.17c0.16-0.24,0.4-0.61,0.77-1.33c1.31-2.61-1.08-5.05-1.19-5.15  c-0.39-0.39-1.02-0.39-1.41,0S31.9,3.31,32.29,3.7c0.01,0.01,1.48,1.53,0.82,2.85C32.8,7.16,32.61,7.46,32.46,7.67z M20.46,7.67  C20,8.36,20,8.61,20,10c0,0.55,0.45,1,1,1s1-0.45,1-1c0-0.54,0-0.97,0.02-1.05c0.02-0.05,0.06-0.1,0.11-0.17  c0.16-0.24,0.4-0.61,0.77-1.33c1.31-2.61-1.08-5.05-1.19-5.15c-0.39-0.39-1.02-0.39-1.41,0c-0.39,0.39-0.39,1.02-0.01,1.41  c0.01,0.01,1.48,1.53,0.82,2.85C20.8,7.16,20.61,7.46,20.46,7.67z M7,20v1c0,0.55,0.45,1,1,1s1-0.45,1-1v-1c0-0.55,0.45-1,1-1h2.05  C12.03,18.67,12,18.34,12,18c0-0.55,0.45-1,1-1h1v-2h-3c-0.55,0-1-0.45-1-1s0.45-1,1-1h32c0.55,0,1,0.45,1,1s-0.45,1-1,1h-3v2h1  c0.55,0,1,0.45,1,1c0,0.34-0.03,0.67-0.05,1H44c0.55,0,1,0.45,1,1v1c0,0.55,0.45,1,1,1s1-0.45,1-1v-1c0-0.38,0.21-0.72,0.55-0.89  l2-1c0.5-0.25,1.09-0.05,1.34,0.45c0.25,0.49,0.05,1.09-0.45,1.34L49,20.62V21c0,1.65-1.35,3-3,3s-3-1.35-3-3h-1.3  c-0.93,4.54-3.92,8.33-7.94,10.37c0.06,0.08,0.13,0.15,0.16,0.25l7.85,19c0.21,0.51-0.03,1.09-0.54,1.31  C41.11,51.98,40.98,52,40.85,52c-0.39,0-0.77-0.23-0.92-0.62L34.81,39H28v12c0,0.55-0.45,1-1,1s-1-0.45-1-1V39h-6.86l-5.22,12.39  C13.76,51.77,13.39,52,13,52c-0.13,0-0.26-0.03-0.39-0.08c-0.51-0.21-0.75-0.8-0.53-1.31l8-19c0.04-0.09,0.1-0.17,0.16-0.24  c-4.02-2.04-7.01-5.83-7.94-10.37H11c0,1.65-1.35,3-3,3s-3-1.35-3-3v-0.38l-1.45-0.72c-0.49-0.25-0.69-0.85-0.45-1.34  c0.25-0.49,0.85-0.69,1.34-0.45l2,1C6.79,19.28,7,19.62,7,20z M26.01,32.95c-1.41-0.09-2.76-0.38-4.03-0.83  c-0.01,0.09-0.02,0.18-0.05,0.27L19.98,37H26v-4C26,32.98,26.01,32.97,26.01,32.95z M32.08,32.38c-0.04-0.09-0.04-0.18-0.05-0.27  c-1.28,0.46-2.63,0.74-4.03,0.83c0,0.02,0.01,0.03,0.01,0.05v4h5.98L32.08,32.38z M36,17h2v-2h-2V17z M32,17h2v-2h-2V17z M28,17h2  v-2h-2V17z M24,17h2v-2h-2V17z M20,17h2v-2h-2V17z M16,17h2v-2h-2V17z M14.04,19c0.51,6.7,6.13,12,12.96,12s12.45-5.3,12.96-12  H14.04z"/><text x="0" y="69" fill="#000000" font-size="5px" font-weight="bold" font-family="'Helvetica Neue', Helvetica, Arial-Unicode, Arial, Sans-serif">Created by Gofficon</text><text x="0" y="74" fill="#000000" font-size="5px" font-weight="bold" font-family="'Helvetica Neue', Helvetica, Arial-Unicode, Arial, Sans-serif">from the Noun Project</text></svg>