<svg xmlns="http://www.w3.org/2000/svg" xmlns:xlink="http://www.w3.org/1999/xlink" version="1.1" x="0px" y="0px" viewBox="0 0 54 67.5" style="enable-background:new 0 0 54 54;" xml:space="preserve"><path d="M37,17c0-5.51-4.49-10-10-10s-10,4.49-10,10s4.49,10,10,10S37,22.51,37,17z M19,17c0-4.41,3.59-8,8-8s8,3.59,8,8  s-3.59,8-8,8S19,21.41,19,17z M33.99,30.26C38.75,27.74,42,22.75,42,17c0-8.27-6.73-15-15-15S12,8.73,12,17  c0,5.75,3.25,10.74,8.01,13.26C14.87,30.65,9,31.62,9,34v14c0,3.81,14.99,4,18,4s18-0.19,18-4V34C45,31.62,39.13,30.65,33.99,30.26z   M14,17c0-7.17,5.83-13,13-13s13,5.83,13,13s-5.83,13-13,13S14,24.17,14,17z M27,32c9.21,0,14.55,1.22,15.81,2  c-1.26,0.78-6.6,2-15.81,2s-14.55-1.22-15.81-2C12.45,33.22,17.79,32,27,32z M11,40.07c1.94,0.84,5.02,1.32,8,1.59v3.99  c-4.78-0.46-7.47-1.27-8-1.79V40.07z M43,47.85C42.23,48.61,36.82,50,27,50s-15.23-1.39-16-2.15v-1.78C15.18,47.88,24.68,48,27,48  s11.82-0.12,16-1.93V47.85z M21,45.81v-4c2.66,0.17,5,0.19,6,0.19s3.34-0.02,6-0.19v4C31.23,45.93,29.23,46,27,46  S22.77,45.93,21,45.81z M43,43.85c-0.53,0.52-3.22,1.33-8,1.79v-3.99c2.98-0.27,6.06-0.74,8-1.59V43.85z M43,37.85  C42.23,38.61,36.82,40,27,40s-15.23-1.39-16-2.15v-1.78C15.18,37.88,24.68,38,27,38s11.82-0.12,16-1.93V37.85z"/><text x="0" y="69" fill="#000000" font-size="5px" font-weight="bold" font-family="'Helvetica Neue', Helvetica, Arial-Unicode, Arial, Sans-serif">Created by Gofficon</text><text x="0" y="74" fill="#000000" font-size="5px" font-weight="bold" font-family="'Helvetica Neue', Helvetica, Arial-Unicode, Arial, Sans-serif">from the Noun Project</text></svg>