<svg xmlns="http://www.w3.org/2000/svg" xmlns:xlink="http://www.w3.org/1999/xlink" version="1.1" x="0px" y="0px" viewBox="0 0 54 67.5" style="enable-background:new 0 0 54 54;" xml:space="preserve"><path d="M27,2C13.21,2,2,13.21,2,27s11.21,25,25,25s25-11.21,25-25S40.79,2,27,2z M27,50C14.32,50,4,39.68,4,27S14.32,4,27,4  c12.68,0,23,10.32,23,23S39.68,50,27,50z M27.95,15.7C27.82,15.28,27.44,15,27,15s-0.82,0.28-0.95,0.7l-7,22  c-0.13,0.42,0.02,0.88,0.39,1.13s0.85,0.23,1.19-0.04c4.65-3.72,8.1-3.72,12.75,0C33.56,38.93,33.78,39,34,39  c0.2,0,0.4-0.06,0.57-0.18c0.36-0.25,0.52-0.71,0.39-1.13L27.95,15.7z M27,34.01c-1.7,0-3.4,0.5-5.16,1.51L27,19.3l5.16,16.23  C30.4,34.52,28.7,34.01,27,34.01z M41.85,12.15c-0.02-0.02-0.04-0.02-0.06-0.04C38,8.34,32.77,6,27,6c-5.77,0-11,2.34-14.8,6.12  c-0.02,0.01-0.04,0.02-0.05,0.04s-0.02,0.04-0.04,0.05C8.34,16,6,21.23,6,27s2.34,11,6.12,14.8c0.01,0.02,0.02,0.04,0.04,0.05  s0.04,0.02,0.05,0.04C16,45.66,21.23,48,27,48c5.77,0,11-2.34,14.79-6.11c0.02-0.01,0.04-0.02,0.06-0.04  c0.02-0.02,0.02-0.04,0.04-0.06C45.66,37.99,48,32.77,48,27s-2.34-10.99-6.11-14.79C41.87,12.19,41.87,12.17,41.85,12.15z M44,28  h1.95c-0.24,4.48-2.02,8.55-4.85,11.69l-1.4-1.39c-0.39-0.39-1.02-0.39-1.41,0s-0.39,1.02,0,1.41l1.4,1.39  c-3.14,2.82-7.2,4.61-11.69,4.85V44c0-0.55-0.45-1-1-1s-1,0.45-1,1v1.95c-4.48-0.24-8.55-2.02-11.69-4.85l1.4-1.4  c0.39-0.39,0.39-1.02,0-1.41s-1.02-0.39-1.41,0l-1.4,1.4c-2.82-3.14-4.61-7.2-4.85-11.69H10c0.55,0,1-0.45,1-1s-0.45-1-1-1H8.05  c0.24-4.48,2.02-8.55,4.85-11.69l1.4,1.4C14.49,15.9,14.74,16,15,16s0.51-0.1,0.71-0.29c0.39-0.39,0.39-1.02,0-1.41l-1.4-1.4  c3.14-2.82,7.2-4.61,11.69-4.85V10c0,0.55,0.45,1,1,1s1-0.45,1-1V8.05c4.48,0.24,8.55,2.02,11.69,4.85l-1.4,1.39  c-0.39,0.39-0.39,1.02,0,1.41C38.49,15.9,38.74,16,39,16s0.51-0.1,0.71-0.29l1.4-1.39c2.82,3.14,4.61,7.2,4.85,11.69H44  c-0.55,0-1,0.45-1,1S43.45,28,44,28z"/><text x="0" y="69" fill="#000000" font-size="5px" font-weight="bold" font-family="'Helvetica Neue', Helvetica, Arial-Unicode, Arial, Sans-serif">Created by Gofficon</text><text x="0" y="74" fill="#000000" font-size="5px" font-weight="bold" font-family="'Helvetica Neue', Helvetica, Arial-Unicode, Arial, Sans-serif">from the Noun Project</text></svg>