<svg xmlns="http://www.w3.org/2000/svg" xmlns:xlink="http://www.w3.org/1999/xlink" version="1.1" x="0px" y="0px" viewBox="0 0 54 67.5" style="enable-background:new 0 0 54 54;" xml:space="preserve"><path d="M51,48h-2.37L27.9,4.57C27.74,4.22,27.39,4,27,4s-0.74,0.22-0.9,0.57L5.37,48H3c-0.55,0-1,0.45-1,1s0.45,1,1,1h3h42h3  c0.55,0,1-0.45,1-1S51.55,48,51,48z M27,7.32l5.92,12.41l-1.21,3.85l-1.85-3.09c-0.2-0.33-0.59-0.52-0.97-0.48  c-0.39,0.04-0.72,0.31-0.84,0.68l-0.14,0.41l-0.99-2.47c-0.15-0.38-0.5-0.6-0.94-0.63c-0.41,0-0.78,0.26-0.93,0.65l-1.94,5.18  l-1.52-5.21L27,7.32z M7.59,48l12.73-26.66l1.73,5.94c0.12,0.41,0.49,0.7,0.92,0.72c0.01,0,0.03,0,0.04,0  c0.42,0,0.79-0.26,0.94-0.65l2.09-5.58l1.04,2.6c0.16,0.39,0.54,0.64,0.96,0.63c0.42-0.01,0.79-0.29,0.92-0.68l0.31-0.94l1.88,3.14  c0.2,0.34,0.58,0.52,0.98,0.48c0.39-0.05,0.72-0.32,0.84-0.69l1.23-3.92L46.41,48H7.59z"/><text x="0" y="69" fill="#000000" font-size="5px" font-weight="bold" font-family="'Helvetica Neue', Helvetica, Arial-Unicode, Arial, Sans-serif">Created by Gofficon</text><text x="0" y="74" fill="#000000" font-size="5px" font-weight="bold" font-family="'Helvetica Neue', Helvetica, Arial-Unicode, Arial, Sans-serif">from the Noun Project</text></svg>