<svg xmlns="http://www.w3.org/2000/svg" xmlns:xlink="http://www.w3.org/1999/xlink" version="1.1" x="0px" y="0px" viewBox="0 0 54 67.5" style="enable-background:new 0 0 54 54;" xml:space="preserve"><path d="M22,23.95V11c0-1.86-1.28-3.41-3-3.86V3c0-0.55-0.45-1-1-1s-1,0.45-1,1v4.14c-1.72,0.45-3,2-3,3.86v12.95  c-2.96,1.48-5,4.53-5,8.05s2.04,6.57,5,8.05V43c0,1.86,1.28,3.41,3,3.86V51c0,0.55,0.45,1,1,1s1-0.45,1-1v-4.14  c1.72-0.45,3-2,3-3.86v-2.95c2.96-1.48,5-4.53,5-8.05S24.96,25.43,22,23.95z M16,11c0-1.1,0.9-2,2-2s2,0.9,2,2v12.23  C19.36,23.08,18.69,23,18,23s-1.36,0.08-2,0.23V11z M20,43c0,1.1-0.9,2-2,2s-2-0.9-2-2v-2.23c0.64,0.15,1.31,0.23,2,0.23  s1.36-0.08,2-0.23V43z M18,39c-3.52,0-6.43-2.61-6.92-6H17c0.55,0,1-0.45,1-1s-0.45-1-1-1h-5.92c0.49-3.39,3.4-6,6.92-6  c3.86,0,7,3.14,7,7S21.86,39,18,39z M44.38,37.08c-0.38-0.16-0.8-0.07-1.09,0.22l-2,2c-0.39,0.39-0.39,1.02,0,1.41s1.02,0.39,1.41,0  L43,40.41V45c0,2.76-2.24,5-5,5s-5-2.24-5-5V33.82c1.16-0.41,2-1.51,2-2.82s-0.84-2.4-2-2.82V3c0-0.55-0.45-1-1-1s-1,0.45-1,1v25.18  c-1.16,0.41-2,1.51-2,2.82s0.84,2.4,2,2.82V45c0,3.86,3.14,7,7,7s7-3.14,7-7v-7C45,37.6,44.76,37.23,44.38,37.08z M32,32  c-0.55,0-1-0.45-1-1s0.45-1,1-1s1,0.45,1,1S32.55,32,32,32z M23,32c0,0.55-0.45,1-1,1h-1c-0.55,0-1-0.45-1-1s0.45-1,1-1h1  C22.55,31,23,31.45,23,32z"/><text x="0" y="69" fill="#000000" font-size="5px" font-weight="bold" font-family="'Helvetica Neue', Helvetica, Arial-Unicode, Arial, Sans-serif">Created by Gofficon</text><text x="0" y="74" fill="#000000" font-size="5px" font-weight="bold" font-family="'Helvetica Neue', Helvetica, Arial-Unicode, Arial, Sans-serif">from the Noun Project</text></svg>