<svg xmlns="http://www.w3.org/2000/svg" xmlns:xlink="http://www.w3.org/1999/xlink" version="1.1" x="0px" y="0px" viewBox="0 0 54 67.5" style="enable-background:new 0 0 54 54;" xml:space="preserve"><path d="M21,25c-0.55,0-1,0.45-1,1v6.59l-3.74,3.74c-1.11-0.53-2.48-0.34-3.41,0.58l-2.83,2.83c-1.17,1.17-1.17,3.07,0,4.24  c0.58,0.58,1.35,0.88,2.12,0.88c0.77,0,1.54-0.29,2.12-0.88l2.83-2.83c0.57-0.57,0.88-1.32,0.88-2.12c0-0.45-0.11-0.89-0.3-1.29  l4.03-4.03c0,0,0,0,0,0L23,32.41V36c0,2.21,1.79,4,4,4s4-1.79,4-4v-3.59l1,1v1.37c0,5.31-1.77,10.46-5,14.64  c-2.61-3.37-4.26-7.35-4.81-11.6c-0.07-0.55-0.57-0.92-1.12-0.87c-0.55,0.07-0.94,0.57-0.86,1.12c0.64,5.03,2.73,9.73,6.03,13.58  C26.43,51.87,26.71,52,27,52s0.57-0.13,0.76-0.35c3.89-4.54,6.07-10.3,6.21-16.26l2.35,2.35c-0.19,0.4-0.3,0.83-0.3,1.29  c0,0.8,0.31,1.55,0.88,2.12l2.83,2.83c0.58,0.58,1.35,0.88,2.12,0.88c0.77,0,1.54-0.29,2.12-0.88c1.17-1.17,1.17-3.07,0-4.24  c0,0,0,0,0,0l-2.83-2.83c-0.92-0.92-2.29-1.11-3.41-0.58l-4.03-4.03c0,0,0,0,0,0L31,29.59v-5.17l1-1V28c0,0.55,0.45,1,1,1  s1-0.45,1-1v-6.59l3.74-3.74c0.41,0.19,0.84,0.3,1.28,0.3c0.77,0,1.54-0.29,2.12-0.88l2.83-2.83c0,0,0,0,0,0  c1.17-1.17,1.17-3.07,0-4.24c-1.17-1.17-3.07-1.17-4.24,0l-2.83,2.83c-0.57,0.57-0.88,1.32-0.88,2.12c0,0.45,0.11,0.89,0.3,1.29  l-4.03,4.03c0,0,0,0,0,0L31,21.59V18c0-2.21-1.79-4-4-4s-4,1.79-4,4v3.59l-1-1v-1.37c0-5.31,1.77-10.46,5-14.64  c2.62,3.39,4.28,7.39,4.81,11.66c0.07,0.55,0.56,0.93,1.12,0.87c0.55-0.07,0.94-0.57,0.87-1.12c-0.63-5.06-2.72-9.77-6.04-13.64  C27.57,2.13,27.29,2,27,2s-0.57,0.13-0.76,0.35c-3.89,4.54-6.07,10.3-6.21,16.26l-2.35-2.35c0.19-0.4,0.3-0.83,0.3-1.29  c0-0.8-0.31-1.55-0.88-2.12l-2.83-2.83c-1.17-1.17-3.07-1.17-4.24,0c-1.17,1.17-1.17,3.07,0,4.24l2.83,2.83  c0.58,0.58,1.35,0.88,2.12,0.88c0.44,0,0.88-0.11,1.28-0.3l4.03,4.03c0,0,0,0,0,0L23,24.41v5.17l-1,1V26C22,25.45,21.55,25,21,25z   M15.69,39.73l-2.83,2.83c-0.39,0.39-1.02,0.39-1.41,0c-0.39-0.39-0.39-1.03,0-1.42l2.83-2.83c0.2-0.2,0.45-0.29,0.71-0.29  c0.26,0,0.51,0.1,0.71,0.29c0.19,0.19,0.29,0.44,0.29,0.71C15.98,39.29,15.88,39.54,15.69,39.73z M38.31,38.31  c0.19-0.2,0.45-0.29,0.71-0.29c0.26,0,0.51,0.1,0.71,0.29l2.83,2.83c0.39,0.39,0.39,1.03,0,1.42c-0.39,0.39-1.02,0.39-1.41,0  l-2.83-2.83c-0.19-0.19-0.29-0.44-0.29-0.71C38.02,38.75,38.12,38.5,38.31,38.31z M38.31,14.27l2.83-2.83  c0.2-0.2,0.45-0.29,0.71-0.29c0.26,0,0.51,0.1,0.71,0.29c0.39,0.39,0.39,1.03,0,1.42l-2.83,2.83c-0.39,0.39-1.02,0.39-1.41,0  c-0.19-0.19-0.29-0.44-0.29-0.71C38.02,14.71,38.12,14.46,38.31,14.27z M29,27.59L28.41,27L29,26.41V27.59z M25,18c0-1.1,0.9-2,2-2  s2,0.9,2,2v5.59l-2,2l-2-2V18z M25,26.41L25.59,27L25,27.59V26.41z M25,30.41l2-2l2,2V36c0,1.1-0.9,2-2,2s-2-0.9-2-2V30.41z   M15.69,15.69c-0.39,0.39-1.03,0.39-1.41,0l-2.83-2.83c-0.39-0.39-0.39-1.03,0-1.42c0.2-0.2,0.45-0.29,0.71-0.29  c0.26,0,0.51,0.1,0.71,0.29l2.83,2.83c0.19,0.19,0.29,0.44,0.29,0.71C15.98,15.25,15.88,15.5,15.69,15.69z"/><text x="0" y="69" fill="#000000" font-size="5px" font-weight="bold" font-family="'Helvetica Neue', Helvetica, Arial-Unicode, Arial, Sans-serif">Created by Gofficon</text><text x="0" y="74" fill="#000000" font-size="5px" font-weight="bold" font-family="'Helvetica Neue', Helvetica, Arial-Unicode, Arial, Sans-serif">from the Noun Project</text></svg>