<svg xmlns="http://www.w3.org/2000/svg" xmlns:xlink="http://www.w3.org/1999/xlink" version="1.1" x="0px" y="0px" viewBox="0 0 54 67.5" style="enable-background:new 0 0 54 54;" xml:space="preserve"><path d="M47.35,2.29c-0.38-0.38-1.04-0.38-1.41,0l-2.92,2.92l-0.74-0.74c-0.39-0.39-1.02-0.39-1.41,0s-0.39,1.02,0,1.41l0.74,0.74  L40.13,8.1c-0.39,0.39-0.39,1.02,0,1.41l0.02,0.02L29.39,20.29l-0.18-0.17c-1.63-1.54-3.83-2.22-6.04-1.86  c-2.21,0.36-4.09,1.69-5.15,3.67c-0.68,1.26-1.86,2.18-3.25,2.51L12.46,25c-4.87,1.19-8.59,4.78-9.95,9.61  c-1.35,4.83-0.05,9.83,3.5,13.38c2.63,2.63,6.05,4.03,9.61,4.03c1.25,0,2.51-0.17,3.77-0.52c4.83-1.35,8.42-5.07,9.61-9.95  l0.56-2.29c0.34-1.39,1.25-2.58,2.51-3.25c1.97-1.06,3.31-2.94,3.67-5.15c0.36-2.21-0.32-4.42-1.86-6.04l-0.17-0.18l10.76-10.76  l0.02,0.02c0.2,0.2,0.45,0.29,0.71,0.29s0.51-0.1,0.71-0.29l2.92-2.92l0.74,0.74c0.2,0.2,0.45,0.29,0.71,0.29s0.51-0.1,0.71-0.29  c0.39-0.39,0.39-1.02,0-1.41l-0.74-0.74l1.47-1.47C51.89,7.87,52,7.62,52,7.35s-0.11-0.52-0.29-0.71L47.35,2.29z M33.76,30.52  c-0.26,1.59-1.22,2.95-2.64,3.71c-1.76,0.95-3.04,2.6-3.51,4.54l-0.56,2.29c-1.01,4.16-4.08,7.34-8.2,8.49  c-4.12,1.16-8.4,0.04-11.42-2.99c-3.03-3.03-4.15-7.3-2.99-11.42c1.16-4.12,4.33-7.19,8.49-8.2l2.29-0.56  c1.94-0.47,3.6-1.75,4.54-3.51c0.76-1.42,2.12-2.38,3.71-2.64c1.59-0.26,3.18,0.23,4.35,1.34l0.14,0.13l-5.99,5.99  c0,0-0.01,0.01-0.01,0.02c-1.58-0.23-3.2,0.29-4.34,1.44c-1.99,1.99-1.99,5.23,0,7.22c1,1,2.3,1.49,3.61,1.49  c1.31,0,2.61-0.5,3.61-1.49c1.14-1.14,1.67-2.76,1.44-4.34c0,0,0.01-0.01,0.02-0.01l5.99-5.99l0.13,0.14  C33.53,27.34,34.02,28.93,33.76,30.52z M24.89,30.6c-0.07,0.07-0.11,0.16-0.16,0.24c-0.39,0.22-0.61,0.67-0.49,1.12  c0.29,1.07-0.02,2.21-0.8,3c-1.21,1.21-3.18,1.21-4.39,0c-1.21-1.21-1.21-3.18,0-4.39c0.78-0.78,1.93-1.09,3-0.8  c0.45,0.12,0.9-0.1,1.12-0.49c0.08-0.05,0.17-0.09,0.24-0.16l18.16-18.16l1.49,1.49L24.89,30.6z M45.19,11.75l-0.02-0.02l-2.9-2.9  l-0.02-0.02l4.39-4.39l2.94,2.94L45.19,11.75z M13.24,36.41c-0.39-0.39-1.02-0.39-1.41,0l-2.18,2.18c-0.39,0.39-0.39,1.02,0,1.41  L14,44.35c0.2,0.2,0.45,0.29,0.71,0.29s0.51-0.1,0.71-0.29l2.18-2.18c0.39-0.39,0.39-1.02,0-1.41L13.24,36.41z M14.71,42.23  l-2.94-2.94l0.76-0.76l2.94,2.94L14.71,42.23z"/><text x="0" y="69" fill="#000000" font-size="5px" font-weight="bold" font-family="'Helvetica Neue', Helvetica, Arial-Unicode, Arial, Sans-serif">Created by Gofficon</text><text x="0" y="74" fill="#000000" font-size="5px" font-weight="bold" font-family="'Helvetica Neue', Helvetica, Arial-Unicode, Arial, Sans-serif">from the Noun Project</text></svg>