<svg xmlns="http://www.w3.org/2000/svg" xmlns:xlink="http://www.w3.org/1999/xlink" version="1.1" x="0px" y="0px" viewBox="0 0 54 67.5" style="enable-background:new 0 0 54 54;" xml:space="preserve"><path d="M13.18,17.99l4.34,29.73c0.35,2.44,2.48,4.28,4.95,4.28h9.08c2.47,0,4.59-1.84,4.95-4.28l4.34-29.73  c0.59-4.02-0.6-8.08-3.26-11.15C34.91,3.76,31.06,2,27,2s-7.91,1.76-10.57,4.83C13.78,9.9,12.59,13.97,13.18,17.99z M17.95,8.14  C20.22,5.51,23.52,4,27,4s6.78,1.51,9.05,4.14c2.28,2.63,3.29,6.12,2.79,9.56l-4.34,29.74C34.3,48.9,33.02,50,31.54,50H28v-7.48  c1.37,0.09,2.59,0.48,3.29,1.19c0.39,0.39,1.02,0.39,1.41,0s0.39-1.02,0-1.41c-1.08-1.08-2.81-1.67-4.71-1.78v-3.96  c1.71,0.12,3.34,0.54,4.45,1.28C32.62,37.95,32.81,38,33,38c0.32,0,0.64-0.16,0.83-0.45c0.31-0.46,0.18-1.08-0.28-1.39  c-1.43-0.95-3.45-1.49-5.55-1.62v-4c2,0.11,3.95,0.55,5.55,1.35C33.7,31.97,33.85,32,34,32c0.37,0,0.72-0.2,0.9-0.55  c0.25-0.49,0.05-1.09-0.45-1.34c-1.88-0.94-4.14-1.45-6.45-1.57V27c0-0.55-0.45-1-1-1s-1,0.45-1,1v1.54  c-2.3,0.12-4.56,0.62-6.45,1.57c-0.49,0.25-0.69,0.85-0.45,1.34c0.25,0.5,0.85,0.69,1.34,0.45c1.6-0.8,3.55-1.24,5.55-1.35v4  c-2.1,0.13-4.13,0.67-5.55,1.62c-0.46,0.31-0.58,0.93-0.28,1.39c0.3,0.46,0.92,0.58,1.39,0.28c1.11-0.74,2.74-1.16,4.45-1.28v4.02  c-1.62,0.19-3.24,0.72-4.55,1.6c-0.46,0.31-0.58,0.93-0.28,1.39C21.36,43.84,21.68,44,22,44c0.19,0,0.38-0.05,0.55-0.17  c0.96-0.64,2.2-1.06,3.45-1.23V50h-3.54c-1.48,0-2.76-1.1-2.97-2.57L15.15,17.7C14.65,14.26,15.67,10.77,17.95,8.14z M17.41,19.92  c0.44,2.36,2.51,4.08,4.91,4.08h9.36c2.4,0,4.47-1.71,4.91-4.08L36.96,18c0.56-2.97-0.23-6.01-2.16-8.34S30.02,6,27,6  s-5.86,1.33-7.79,3.66s-2.72,5.36-2.16,8.34L17.41,19.92z M20.74,10.94C22.29,9.07,24.57,8,27,8s4.71,1.07,6.26,2.94  c1.55,1.87,2.18,4.31,1.73,6.69l-0.36,1.93C34.36,20.97,33.12,22,31.68,22h-9.36c-1.44,0-2.68-1.03-2.95-2.45l-0.36-1.93  C18.56,15.24,19.2,12.8,20.74,10.94z"/><text x="0" y="69" fill="#000000" font-size="5px" font-weight="bold" font-family="'Helvetica Neue', Helvetica, Arial-Unicode, Arial, Sans-serif">Created by Gofficon</text><text x="0" y="74" fill="#000000" font-size="5px" font-weight="bold" font-family="'Helvetica Neue', Helvetica, Arial-Unicode, Arial, Sans-serif">from the Noun Project</text></svg>