<svg xmlns="http://www.w3.org/2000/svg" xmlns:xlink="http://www.w3.org/1999/xlink" version="1.1" x="0px" y="0px" viewBox="0 0 54 67.5" style="enable-background:new 0 0 54 54;" xml:space="preserve"><path d="M49.53,2.15c-0.31-0.2-0.71-0.21-1.03-0.02c-6.15,3.51-18.44,16.05-27.7,25.56c-0.38-0.36-1.03-0.35-1.4,0.02L4.28,43.24  C4.1,43.43,4,43.68,4,43.94c0,2.02,0.88,4.13,2.35,5.64C7.83,51.1,9.89,52,11.88,52c0.46,0,0.86-0.32,0.97-0.76  c1.52-6.23,4.43-9.26,9.45-9.83c0.5-0.06,0.89-0.49,0.89-0.99c0-3.35,1.23-3.94,3.81-3.94c0.4,0,0.76-0.24,0.92-0.61  c0.16-0.37,0.08-0.8-0.2-1.09l-0.01-0.01C38.9,23.27,49.3,12.43,50,3.07C50.02,2.71,49.85,2.35,49.53,2.15z M21.22,39.54  c-6.62,1.14-8.97,6.24-10.1,10.4c-1.04-0.17-2.3-0.69-3.34-1.75c-1.02-1.04-1.66-2.46-1.76-3.85l14.11-14.49l4.71,4.84  C23.03,35.11,21.46,36.32,21.22,39.54z M26.31,33.33l-4.1-4.21c7.89-8.1,19.03-19.48,25.45-24.05  C45.65,13.33,35.93,23.45,26.31,33.33z M10.41,43.59c0.78,0.78,0.78,2.05,0,2.83C10.02,46.8,9.51,47,9,47s-1.02-0.19-1.41-0.58  c-0.78-0.78-0.78-2.05,0-2.83C8.37,42.81,9.63,42.81,10.41,43.59z M21.41,32.59c0.78,0.78,0.78,2.05,0,2.83  C21.02,35.8,20.51,36,20,36s-1.02-0.19-1.41-0.58c-0.78-0.78-0.78-2.05,0-2.83C19.37,31.81,20.63,31.81,21.41,32.59z"/><text x="0" y="69" fill="#000000" font-size="5px" font-weight="bold" font-family="'Helvetica Neue', Helvetica, Arial-Unicode, Arial, Sans-serif">Created by Gofficon</text><text x="0" y="74" fill="#000000" font-size="5px" font-weight="bold" font-family="'Helvetica Neue', Helvetica, Arial-Unicode, Arial, Sans-serif">from the Noun Project</text></svg>