<svg xmlns="http://www.w3.org/2000/svg" xmlns:xlink="http://www.w3.org/1999/xlink" version="1.1" x="0px" y="0px" viewBox="0 0 54 67.5" style="enable-background:new 0 0 54 54;" xml:space="preserve"><path d="M27,2C13.21,2,2,13.21,2,27s11.21,25,25,25s25-11.21,25-25S40.79,2,27,2z M27,50C14.32,50,4,39.68,4,27S14.32,4,27,4  s23,10.32,23,23S39.68,50,27,50z M41.85,12.15c-0.02-0.02-0.04-0.02-0.05-0.04C38,8.34,32.77,6,27,6s-11,2.34-14.8,6.12  c-0.02,0.01-0.04,0.02-0.05,0.04s-0.02,0.04-0.04,0.05C8.34,16,6,21.23,6,27s2.34,11,6.12,14.8c0.01,0.02,0.02,0.04,0.04,0.05  s0.04,0.02,0.05,0.04C16,45.66,21.23,48,27,48s11-2.34,14.8-6.12c0.02-0.01,0.04-0.02,0.05-0.04s0.02-0.04,0.04-0.05  C45.66,38,48,32.77,48,27s-2.34-11-6.12-14.8C41.87,12.19,41.86,12.17,41.85,12.15z M44,28h1.95c-0.24,4.48-2.02,8.55-4.85,11.69  l-1.4-1.4c-0.39-0.39-1.02-0.39-1.41,0s-0.39,1.02,0,1.41l1.4,1.4c-3.14,2.82-7.2,4.61-11.69,4.85V44c0-0.55-0.45-1-1-1s-1,0.45-1,1  v1.95c-4.48-0.24-8.55-2.02-11.69-4.85l1.4-1.4c0.39-0.39,0.39-1.02,0-1.41s-1.02-0.39-1.41,0l-1.4,1.4  c-2.82-3.14-4.61-7.2-4.85-11.69H10c0.55,0,1-0.45,1-1s-0.45-1-1-1H8.05c0.24-4.48,2.02-8.55,4.85-11.69l1.4,1.4  C14.49,15.9,14.74,16,15,16s0.51-0.1,0.71-0.29c0.39-0.39,0.39-1.02,0-1.41l-1.4-1.4c3.14-2.82,7.2-4.61,11.69-4.85V10  c0,0.55,0.45,1,1,1s1-0.45,1-1V8.05c4.48,0.24,8.55,2.02,11.69,4.85l-1.4,1.4c-0.39,0.39-0.39,1.02,0,1.41  C38.49,15.9,38.74,16,39,16s0.51-0.1,0.71-0.29l1.4-1.4c2.82,3.14,4.61,7.2,4.85,11.69H44c-0.55,0-1,0.45-1,1S43.45,28,44,28z   M37.24,26.03l-6.29-1.57l1.75-1.75c0.39-0.39,0.39-1.02,0-1.41s-1.02-0.39-1.41,0l-1.75,1.75l-1.57-6.29  C27.86,16.31,27.46,16,27,16s-0.86,0.31-0.97,0.76l-1.57,6.29l-1.75-1.75c-0.39-0.39-1.02-0.39-1.41,0s-0.39,1.02,0,1.41l1.75,1.75  l-6.29,1.57C16.31,26.14,16,26.54,16,27s0.31,0.86,0.76,0.97l6.29,1.57l-1.75,1.75c-0.39,0.39-0.39,1.02,0,1.41  C21.49,32.9,21.74,33,22,33s0.51-0.1,0.71-0.29l1.75-1.75l1.57,6.29C26.14,37.69,26.54,38,27,38s0.86-0.31,0.97-0.76l1.57-6.29  l1.75,1.75C31.49,32.9,31.74,33,32,33s0.51-0.1,0.71-0.29c0.39-0.39,0.39-1.02,0-1.41l-1.75-1.75l6.29-1.57  C37.69,27.86,38,27.46,38,27S37.69,26.14,37.24,26.03z M28.76,28.03c-0.03,0.01-0.06,0.02-0.08,0.03c-0.03,0.01-0.06,0.02-0.09,0.04  c-0.11,0.05-0.21,0.11-0.29,0.19c0,0,0,0,0,0s0,0,0,0c-0.08,0.08-0.14,0.18-0.19,0.29c-0.01,0.03-0.02,0.06-0.04,0.09  c-0.01,0.03-0.03,0.05-0.03,0.08L27,32.88l-1.03-4.12c-0.01-0.03-0.02-0.06-0.03-0.08c-0.01-0.03-0.02-0.06-0.04-0.09  c-0.05-0.11-0.11-0.21-0.19-0.29c0,0,0,0,0,0s0,0,0,0c-0.08-0.08-0.18-0.14-0.29-0.19c-0.03-0.01-0.06-0.02-0.09-0.04  c-0.03-0.01-0.05-0.03-0.08-0.03L21.12,27l4.12-1.03c0.03-0.01,0.06-0.02,0.08-0.03c0.03-0.01,0.06-0.02,0.09-0.04  c0.11-0.05,0.21-0.11,0.29-0.19c0,0,0,0,0,0s0,0,0,0c0.08-0.08,0.14-0.18,0.19-0.29c0.01-0.03,0.02-0.06,0.04-0.09  c0.01-0.03,0.03-0.05,0.03-0.08L27,21.12l1.03,4.12c0.01,0.03,0.02,0.06,0.03,0.08c0.01,0.03,0.02,0.06,0.04,0.09  c0.05,0.11,0.11,0.21,0.19,0.29c0,0,0,0,0,0s0,0,0,0c0.08,0.08,0.18,0.14,0.29,0.19c0.03,0.01,0.06,0.02,0.09,0.04  c0.03,0.01,0.05,0.03,0.08,0.03L32.88,27L28.76,28.03z"/><text x="0" y="69" fill="#000000" font-size="5px" font-weight="bold" font-family="'Helvetica Neue', Helvetica, Arial-Unicode, Arial, Sans-serif">Created by Gofficon</text><text x="0" y="74" fill="#000000" font-size="5px" font-weight="bold" font-family="'Helvetica Neue', Helvetica, Arial-Unicode, Arial, Sans-serif">from the Noun Project</text></svg>