<svg xmlns="http://www.w3.org/2000/svg" xmlns:xlink="http://www.w3.org/1999/xlink" version="1.1" x="0px" y="0px" viewBox="0 0 54 67.5" style="enable-background:new 0 0 54 54;" xml:space="preserve"><path d="M49.39,33.13L18.63,8.22c-0.37-0.3-0.91-0.3-1.27,0.01c-1.71,1.44-2.69,3.55-2.68,5.79c0.01,2.24,1,4.35,2.73,5.77  l14.03,11.57l-21.41-0.9c-2.11-0.1-4.11,0.67-5.64,2.13C2.85,34.08,2,36.08,2,38.24c0,2.15,0.85,4.14,2.39,5.62  C5.84,45.25,7.71,46,9.7,46c0.11,0,0.22,0,0.33-0.01l36.02-1.51C49.39,44.34,52,41.6,52,38.23C52,36.13,50.98,34.26,49.39,33.13z   M18.68,18.25c-1.26-1.04-1.99-2.59-2-4.23c-0.01-1.37,0.49-2.68,1.38-3.68l26.67,21.59l-4.84-0.2c-0.06-0.11-0.14-0.22-0.24-0.3  L25.43,19.35c-0.42-0.36-1.05-0.3-1.41,0.12c-0.36,0.42-0.31,1.05,0.12,1.41l12.62,10.72l-2.04-0.09c-0.03-0.03-0.04-0.07-0.08-0.1  L18.68,18.25z M45.96,42.48L9.95,44c-1.55,0.06-3.04-0.5-4.17-1.58C4.63,41.32,4,39.83,4,38.23c0-1.6,0.63-3.08,1.78-4.18  c1.07-1.03,2.46-1.58,3.93-1.58c0.08,0,0.16,0,0.24,0l36.02,1.51c0.84,0.04,1.62,0.32,2.26,0.77l0.06,0.05  c1.04,0.77,1.71,2.02,1.71,3.43C50,40.52,48.23,42.39,45.96,42.48z M46,35.14c-1.65,0-3,1.35-3,3s1.35,3,3,3s3-1.35,3-3  S47.65,35.14,46,35.14z M46,39.14c-0.55,0-1-0.45-1-1s0.45-1,1-1s1,0.45,1,1S46.55,39.14,46,39.14z M23.05,17.33  c0.42,0.36,0.47,0.99,0.12,1.41c-0.2,0.23-0.48,0.35-0.76,0.35c-0.23,0-0.46-0.08-0.65-0.24l-2.41-2.04  c-0.42-0.36-0.47-0.99-0.12-1.41c0.36-0.42,0.99-0.47,1.41-0.12L23.05,17.33z"/><text x="0" y="69" fill="#000000" font-size="5px" font-weight="bold" font-family="'Helvetica Neue', Helvetica, Arial-Unicode, Arial, Sans-serif">Created by Gofficon</text><text x="0" y="74" fill="#000000" font-size="5px" font-weight="bold" font-family="'Helvetica Neue', Helvetica, Arial-Unicode, Arial, Sans-serif">from the Noun Project</text></svg>