<svg xmlns="http://www.w3.org/2000/svg" xmlns:xlink="http://www.w3.org/1999/xlink" version="1.1" x="0px" y="0px" viewBox="0 0 54 67.5" style="enable-background:new 0 0 54 54;" xml:space="preserve"><path d="M2.13,44.45c-0.13,0.23-0.17,0.5-0.1,0.76l1.62,6.05C3.78,51.71,4.18,52,4.62,52c0.09,0,0.17-0.01,0.26-0.03l22.13-5.93  l22.11,5.93c0.09,0.02,0.17,0.03,0.26,0.03c0.44,0,0.84-0.29,0.96-0.74l1.62-6.05c0.14-0.53-0.17-1.08-0.71-1.22l-8.29-2.22  l8.29-2.22c0.26-0.07,0.47-0.24,0.61-0.47s0.17-0.5,0.1-0.76l-0.81-3.02c0,0,0,0,0,0s0,0,0,0l-0.81-3.02  c-0.14-0.53-0.69-0.85-1.22-0.71L27,37.48L4.88,31.55c-0.26-0.07-0.53-0.03-0.76,0.1c-0.23,0.13-0.4,0.35-0.47,0.61l-1.62,6.05  c-0.07,0.26-0.03,0.53,0.1,0.76c0.13,0.23,0.35,0.4,0.61,0.47l8.3,2.23l-8.3,2.22C2.49,44.05,2.27,44.22,2.13,44.45z M49.78,45.66  l-0.29,1.09l-11.13-2.98c-0.53-0.14-1.08,0.17-1.22,0.71c-0.14,0.53,0.17,1.08,0.71,1.22l11.13,2.98l-0.29,1.09L30.87,45l8.23-2.21  L49.78,45.66z M4.22,37.86l0.29-1.09l11.13,2.98c0.09,0.02,0.17,0.03,0.26,0.03c0.44,0,0.85-0.29,0.96-0.74  c0.14-0.53-0.17-1.08-0.71-1.22L5.03,34.84l0.29-1.1l17.81,4.77l-8.23,2.21L4.22,37.86z M48.67,33.75l0.29,1.09l-11.13,2.98  c-0.53,0.14-0.85,0.69-0.71,1.22c0.12,0.45,0.52,0.74,0.96,0.74c0.09,0,0.17-0.01,0.26-0.03l11.13-2.98l0.29,1.09L5.33,49.78  l-0.29-1.09l11.13-2.98c0.53-0.14,0.85-0.69,0.71-1.22c-0.14-0.53-0.69-0.85-1.22-0.71L4.52,46.75l-0.29-1.09L48.67,33.75z   M30.09,31.86c-0.15,0.08-0.28,0.15-0.41,0.19c-0.49,0.16-0.77,0.66-0.66,1.16C29.12,33.68,29.53,34,30,34c0.04,0,0.07,0,0.11-0.01  c7.89-0.85,10.18-4.54,10.72-7.48c0.96-5.25-3.15-11.78-4.38-12.4c-0.24-0.12-0.51-0.14-0.76-0.06c-0.25,0.08-0.46,0.26-0.58,0.5  c-0.53,1.05-1.15,1.69-1.86,1.88c-0.37,0.1-0.72,0.07-1.01,0c2.38-8.1-4.52-14.14-4.59-14.2c-0.26-0.22-0.61-0.3-0.94-0.2  s-0.58,0.36-0.67,0.68c-1.4,4.91-2.2,5.58-4.12,7.19c-0.7,0.59-1.56,1.31-2.62,2.37c-3.35,3.35-2.42,7.87-1.01,10.74  c-0.89-0.33-1.92-1.09-2.57-1.74c-0.25-0.25-0.61-0.35-0.95-0.26c-0.34,0.09-0.61,0.34-0.71,0.68c-1.12,3.74-0.89,6.71,0.69,8.84  C16.41,32.81,19.61,34,24,34c0.44,0,0.83-0.29,0.96-0.71c0.13-0.42-0.03-0.88-0.4-1.12c-0.02-0.01-1.45-0.99-2.16-2.5  c0.98,0.33,2.01,0.54,2.5-0.11c0.41-0.54,0.25-1.15-0.06-2.25c-0.78-2.84-1.34-5.97,1.49-7.82c0.48,1.69,1.38,3.8,3.06,4.88  c0.49,0.31,1.01,0.49,1.48,0.64c0.49,0.16,0.91,0.3,1.18,0.55c0.42,0.38,0.66,1.07,0.62,1.78C32.59,29.14,31.5,31.04,30.09,31.86z   M31.49,23.11c-0.38-0.13-0.75-0.24-1.01-0.42c-1.12-0.72-2.02-2.5-2.49-4.88c-0.06-0.3-0.25-0.55-0.51-0.69  c-0.27-0.14-0.58-0.16-0.86-0.04c-5.86,2.51-4.43,8.11-3.73,10.63c-0.5-0.18-1.05-0.42-1.42-0.61c-0.31-0.15-0.68-0.14-0.97,0.04  C20.18,27.33,20,27.65,20,28c0,1.55,0.65,2.85,1.38,3.82c-1.96-0.28-3.93-0.97-5.05-2.47c-0.98-1.32-1.23-3.19-0.76-5.56  c1.26,0.92,3.2,1.93,4.87,1.1c0.26-0.13,0.45-0.37,0.52-0.65c0.07-0.28,0.02-0.58-0.15-0.82c-0.04-0.06-4-5.83-0.11-9.72  c1-1,1.79-1.67,2.5-2.26c2.01-1.69,3.01-2.66,4.27-6.54c1.72,1.99,4.61,6.37,2.59,11.74c-0.16,0.44,0,0.93,0.38,1.18  c0.16,0.1,1.57,1,3.3,0.54c0.92-0.24,1.72-0.81,2.4-1.7c1.33,1.93,3.63,6.57,2.56,10.15c-0.64,2.15-2.42,3.66-5.32,4.52  c0.75-1.16,1.23-2.54,1.29-3.91c0.06-1.31-0.42-2.56-1.27-3.35C32.81,23.54,32.1,23.31,31.49,23.11z"/><text x="0" y="69" fill="#000000" font-size="5px" font-weight="bold" font-family="'Helvetica Neue', Helvetica, Arial-Unicode, Arial, Sans-serif">Created by Gofficon</text><text x="0" y="74" fill="#000000" font-size="5px" font-weight="bold" font-family="'Helvetica Neue', Helvetica, Arial-Unicode, Arial, Sans-serif">from the Noun Project</text></svg>