<svg xmlns="http://www.w3.org/2000/svg" xmlns:xlink="http://www.w3.org/1999/xlink" version="1.1" x="0px" y="0px" viewBox="0 0 54 67.5" style="enable-background:new 0 0 54 54;" xml:space="preserve"><path d="M8.28,46.93C9.12,49.85,11.81,52,15,52h24c3.19,0,5.88-2.15,6.72-5.07C48.14,46.57,50,44.51,50,42V29  c0-2.41-1.72-4.43-4-4.9V20v-2v-2c0-3.86-3.14-7-7-7h-5c0-3.86-3.14-7-7-7s-7,3.14-7,7h-5c-3.86,0-7,3.14-7,7v2v2v4.1  c-2.28,0.46-4,2.48-4,4.9v13C4,44.51,5.86,46.57,8.28,46.93z M46,26.17c1.16,0.41,2,1.52,2,2.83v13c0,1.3-0.84,2.42-2,2.83V26.17z   M27,4c2.76,0,5,2.24,5,5H22C22,6.24,24.24,4,27,4z M10,18v-2c0-2.76,2.24-5,5-5h6h12h6c2.76,0,5,2.24,5,5v2v2c0,2.76-2.24,5-5,5h-1  v-3c0-0.55-0.45-1-1-1h-4c-0.55,0-1,0.45-1,1v3H22v-3c0-0.55-0.45-1-1-1h-4c-0.55,0-1,0.45-1,1v3h-1c-2.76,0-5-2.24-5-5V18z M36,23  v3v3h-2v-3v-3H36z M20,23v6h-2v-6H20z M10,25v-0.11c1.27,1.3,3.04,2.11,5,2.11h1v3c0,0.55,0.45,1,1,1h4c0.55,0,1-0.45,1-1v-3h10v3  c0,0.55,0.45,1,1,1h4c0.55,0,1-0.45,1-1v-3h1c1.96,0,3.73-0.81,5-2.11V25v20c0,2.76-2.24,5-5,5H15c-2.76,0-5-2.24-5-5V25z M6,29  c0-1.3,0.84-2.42,2-2.83v18.66C6.84,44.42,6,43.3,6,42V29z M23,48h8c3.86,0,7-3.14,7-7v-7c0-0.55-0.45-1-1-1H17c-0.55,0-1,0.45-1,1  v7C16,44.86,19.14,48,23,48z M18,35h18v6c0,2.76-2.24,5-5,5h-8c-2.76,0-5-2.24-5-5V35z M20,38c0-0.55,0.45-1,1-1h12  c0.55,0,1,0.45,1,1s-0.45,1-1,1H21C20.45,39,20,38.55,20,38z M32,42c0,0.55-0.45,1-1,1h-8c-0.55,0-1-0.45-1-1s0.45-1,1-1h8  C31.55,41,32,41.45,32,42z"/><text x="0" y="69" fill="#000000" font-size="5px" font-weight="bold" font-family="'Helvetica Neue', Helvetica, Arial-Unicode, Arial, Sans-serif">Created by Gofficon</text><text x="0" y="74" fill="#000000" font-size="5px" font-weight="bold" font-family="'Helvetica Neue', Helvetica, Arial-Unicode, Arial, Sans-serif">from the Noun Project</text></svg>