<svg xmlns="http://www.w3.org/2000/svg" xmlns:xlink="http://www.w3.org/1999/xlink" version="1.1" x="0px" y="0px" viewBox="0 0 54 67.5" style="enable-background:new 0 0 54 54;" xml:space="preserve"><path d="M43.05,23c0.22-0.01,0.44-0.1,0.61-0.25l8-7C51.88,15.56,52,15.29,52,15s-0.12-0.56-0.34-0.75l-8-7  C43.49,7.1,43.27,7.01,43.05,7L40,6.85V6c0-1.07-0.42-2.07-1.17-2.83c-0.95-0.95-2.31-1.36-3.63-1.09C33.34,2.45,32,4.16,32,6.15  v0.3l-10.01-0.5c-0.01-1.05-0.42-2.03-1.17-2.78c-0.95-0.95-2.31-1.36-3.63-1.09c-1.66,0.33-2.9,1.75-3.14,3.47L3.05,5  C2.78,4.98,2.51,5.09,2.31,5.28C2.11,5.46,2,5.73,2,6v18c0,0.27,0.11,0.54,0.31,0.72C2.5,24.9,2.74,25,3,25c0.02,0,0.03,0,0.05,0  L14,24.45v4.4L10.95,29c-0.22,0.01-0.44,0.1-0.61,0.25l-8,7C2.12,36.44,2,36.71,2,37s0.12,0.56,0.34,0.75l8,7  c0.17,0.15,0.38,0.23,0.61,0.25L14,45.15V51c0,0.55,0.45,1,1,1s1-0.45,1-1v-5.75l4,0.2V51c0,0.55,0.45,1,1,1s1-0.45,1-1v-5.45  l10,0.5V51c0,0.55,0.45,1,1,1s1-0.45,1-1v-4.85l4,0.2V51c0,0.55,0.45,1,1,1s1-0.45,1-1v-4.55L50.95,47c0.02,0,0.03,0,0.05,0  c0.26,0,0.5-0.1,0.69-0.28C51.89,46.54,52,46.27,52,46V28c0-0.27-0.11-0.54-0.31-0.72c-0.2-0.19-0.46-0.28-0.74-0.27L40,27.55v-4.4  L43.05,23z M34,6.15c0-1.02,0.68-1.92,1.58-2.1c0.68-0.13,1.35,0.06,1.83,0.54C37.79,4.97,38,5.47,38,6v0.75l-4-0.2V6.15z   M17.58,4.04c0.68-0.13,1.35,0.06,1.83,0.54c0.34,0.34,0.54,0.79,0.57,1.26l-3.92-0.2C16.24,4.85,16.83,4.19,17.58,4.04z M50,29.05  v15.9l-38.6-1.93L4.52,37l6.88-6.02L50,29.05z M16,28.75v-4.4l4-0.2v4.4L16,28.75z M22,28.45v-4.4l10-0.5v4.4L22,28.45z M34,27.85  v-4.4l4-0.2v4.4L34,27.85z M4,22.95V7.05l38.6,1.93L49.48,15l-6.88,6.02L4,22.95z M20,15c0,1.1-0.9,2-2,2s-2-0.9-2-2s0.9-2,2-2  S20,13.9,20,15z M38,15c0,1.1-0.9,2-2,2s-2-0.9-2-2s0.9-2,2-2S38,13.9,38,15z M16,37c0-1.1,0.9-2,2-2s2,0.9,2,2s-0.9,2-2,2  S16,38.1,16,37z M34,37c0-1.1,0.9-2,2-2s2,0.9,2,2s-0.9,2-2,2S34,38.1,34,37z"/><text x="0" y="69" fill="#000000" font-size="5px" font-weight="bold" font-family="'Helvetica Neue', Helvetica, Arial-Unicode, Arial, Sans-serif">Created by Gofficon</text><text x="0" y="74" fill="#000000" font-size="5px" font-weight="bold" font-family="'Helvetica Neue', Helvetica, Arial-Unicode, Arial, Sans-serif">from the Noun Project</text></svg>