<svg xmlns="http://www.w3.org/2000/svg" xmlns:xlink="http://www.w3.org/1999/xlink" version="1.1" x="0px" y="0px" viewBox="0 0 54 67.5" style="enable-background:new 0 0 54 54;" xml:space="preserve"><path d="M16.5,23H46c3.31,0,6-2.69,6-6s-2.69-6-6-6H12c-4.41,0-8-3.59-8-8c0-0.55-0.45-1-1-1S2,2.45,2,3c0,5.51,4.49,10,10,10h34  c2.21,0,4,1.79,4,4s-1.79,4-4,4H16.5c-3.58,0-6.5,2.92-6.5,6.5s2.92,6.5,6.5,6.5H44c3.31,0,6,2.69,6,6s-2.69,6-6,6h-2.1  c-0.46-2.28-2.48-4-4.9-4h-9c-2.41,0-4.43,1.72-4.9,4H15v-1c0-0.55-0.45-1-1-1s-1,0.45-1,1v1H5.5C4.67,46,4,45.33,4,44.5  S4.67,43,5.5,43H7c0.55,0,1-0.45,1-1s-0.45-1-1-1H5.5C3.57,41,2,42.57,2,44.5S3.57,48,5.5,48H13v1c0,0.55,0.45,1,1,1s1-0.45,1-1v-1  h8.1c0.46,2.28,2.48,4,4.9,4h9c2.41,0,4.43-1.72,4.9-4H44c4.41,0,8-3.59,8-8s-3.59-8-8-8H16.5c-2.48,0-4.5-2.02-4.5-4.5  S14.02,23,16.5,23z M34,50h-6c-1.65,0-3-1.35-3-3s1.35-3,3-3h6V50z M37,50h-1v-6h1c1.65,0,3,1.35,3,3S38.65,50,37,50z"/><text x="0" y="69" fill="#000000" font-size="5px" font-weight="bold" font-family="'Helvetica Neue', Helvetica, Arial-Unicode, Arial, Sans-serif">Created by Gofficon</text><text x="0" y="74" fill="#000000" font-size="5px" font-weight="bold" font-family="'Helvetica Neue', Helvetica, Arial-Unicode, Arial, Sans-serif">from the Noun Project</text></svg>