<svg xmlns="http://www.w3.org/2000/svg" xmlns:xlink="http://www.w3.org/1999/xlink" version="1.1" x="0px" y="0px" viewBox="0 0 54 67.5" style="enable-background:new 0 0 54 54;" xml:space="preserve"><path d="M14.81,21.02c-0.33,0.07-0.6,0.29-0.73,0.6c-2.78,6.68-1.56,10.8-0.04,13.07C16.02,37.67,19.47,39,22,39  c0.49,0,0.91-0.36,0.99-0.84c0.08-0.48-0.21-0.95-0.67-1.11c-0.91-0.3-1.28-1.34-1.42-1.93c-0.36-1.53-0.06-3.83,1.1-5.56  c0.75,0.69,2.02,1.43,4,1.43c0.38,0,0.73-0.21,0.89-0.55s0.13-0.74-0.09-1.05c-0.2-0.27-4.51-6.16-0.53-11.97  c0.28,2.47,1,5.82,4.29,7.47c0.87,0.44,2.11,1.19,2.75,1.82c1.28,1.25,1.81,2.85,1.58,4.75c-0.33,2.63-2.01,4.94-2.79,5.39  c-0.15,0.08-0.28,0.15-0.41,0.19c-0.48,0.16-0.77,0.66-0.66,1.16C31.12,38.68,31.53,39,32,39c0.04,0,0.07,0,0.11-0.01  c7.15-0.77,9.33-4.65,9.9-7.77c1.28-7-4.39-16.54-5.55-17.12c-0.24-0.12-0.51-0.14-0.77-0.06c-0.25,0.08-0.46,0.26-0.58,0.5  c-0.53,1.05-1.15,1.69-1.86,1.88c-0.37,0.1-0.72,0.07-1.01,0c2.38-8.1-4.52-14.14-4.59-14.2c-0.26-0.22-0.61-0.3-0.94-0.2  c-0.33,0.1-0.58,0.36-0.67,0.68c-1.4,4.91-2.2,5.58-4.12,7.19c-0.7,0.59-1.56,1.31-2.62,2.37c-3.35,3.35-2.42,7.87-1.01,10.74  c-0.9-0.33-1.92-1.09-2.57-1.74C15.47,21.06,15.13,20.96,14.81,21.02z M20.82,23.43c-0.04-0.06-4-5.83-0.11-9.72  c1-1,1.79-1.67,2.49-2.26c2.01-1.69,3.01-2.66,4.27-6.54c1.72,1.99,4.61,6.37,2.6,11.74c-0.16,0.44,0,0.93,0.38,1.18  c0.16,0.1,1.57,1,3.3,0.54c0.9-0.24,1.69-0.79,2.35-1.64c1.67,2.63,5.36,10.06,3.67,15.2c-0.68,2.07-2.21,3.53-4.58,4.37  c0.8-1.3,1.47-2.95,1.67-4.58c0.31-2.52-0.44-4.74-2.16-6.43c-0.86-0.84-2.29-1.7-3.25-2.18c-2.77-1.39-3.08-4.69-3.29-6.88  c-0.05-0.55-0.1-1.02-0.17-1.42c-0.07-0.36-0.34-0.66-0.69-0.76c-0.35-0.11-0.74-0.01-1,0.25c-5.33,5.33-3.69,11.24-2.26,14.27  c-0.81-0.42-1.12-0.98-1.14-1.01c-0.14-0.29-0.42-0.49-0.73-0.54c-0.32-0.05-0.64,0.05-0.87,0.28c-2.05,2.05-3.01,5.45-2.34,8.29  c0.07,0.29,0.15,0.56,0.25,0.81c-1.31-0.55-2.61-1.47-3.51-2.82c-1.62-2.43-1.71-5.83-0.27-9.9c1.25,0.94,3.28,2.08,5.02,1.21  c0.26-0.13,0.45-0.37,0.52-0.65C21.04,23.96,20.99,23.67,20.82,23.43z M11,44v5c0,1.65,1.35,3,3,3h26c1.65,0,3-1.35,3-3v-5  c0-1.65-1.35-3-3-3H14C12.35,41,11,42.35,11,44z M13,46h11c0.55,0,1-0.45,1-1s-0.45-1-1-1H13c0-0.55,0.45-1,1-1h26  c0.55,0,1,0.45,1,1v3h-9c-0.55,0-1,0.45-1,1s0.45,1,1,1h9c0,0.55-0.45,1-1,1H14c-0.55,0-1-0.45-1-1V46z"/><text x="0" y="69" fill="#000000" font-size="5px" font-weight="bold" font-family="'Helvetica Neue', Helvetica, Arial-Unicode, Arial, Sans-serif">Created by Gofficon</text><text x="0" y="74" fill="#000000" font-size="5px" font-weight="bold" font-family="'Helvetica Neue', Helvetica, Arial-Unicode, Arial, Sans-serif">from the Noun Project</text></svg>