<svg xmlns="http://www.w3.org/2000/svg" xmlns:xlink="http://www.w3.org/1999/xlink" version="1.1" x="0px" y="0px" viewBox="0 0 54 67.5" style="enable-background:new 0 0 54 54;" xml:space="preserve"><path d="M41,12H13c-1.65,0-3,1.35-3,3v18H3c-0.55,0-1,0.45-1,1v3c0,0.55,0.45,1,1,1h3v3c0,0.55,0.45,1,1,1s1-0.45,1-1v-3h3h4h8h10  c0.55,0,1-0.45,1-1c0-3.31,2.69-6,6-6s6,2.69,6,6c0,0.55,0.45,1,1,1h2c1.65,0,3-1.35,3-3V23C52,16.93,47.07,12,41,12z M10,36H4v-1h6  V36z M22,36h-6V22c0-0.55,0.45-1,1-1h4c0.55,0,1,0.45,1,1V36z M50,35c0,0.55-0.45,1-1,1h-1.07c-0.49-3.94-3.86-7-7.93-7  s-7.44,3.06-7.93,7H24V22c0-1.65-1.35-3-3-3h-4c-1.65,0-3,1.35-3,3v14h-2v-2V15c0-0.55,0.45-1,1-1h28c4.96,0,9,4.04,9,9V35z M40,42  c2.76,0,5-2.24,5-5s-2.24-5-5-5s-5,2.24-5,5S37.24,42,40,42z M40,34c1.65,0,3,1.35,3,3s-1.35,3-3,3s-3-1.35-3-3S38.35,34,40,34z   M33,19h-4c-1.65,0-3,1.35-3,3v2c0,1.65,1.35,3,3,3h4c1.65,0,3-1.35,3-3v-2C36,20.35,34.65,19,33,19z M30,25h-1c-0.55,0-1-0.45-1-1  h2V25z M30,22h-2c0-0.55,0.45-1,1-1h1V22z M33,25h-1v-1h2C34,24.55,33.55,25,33,25z M32,22v-1h1c0.55,0,1,0.45,1,1H32z M45,19h-4  c-1.65,0-3,1.35-3,3v2c0,1.65,1.35,3,3,3h4c1.65,0,3-1.35,3-3v-2C48,20.35,46.65,19,45,19z M42,25h-1c-0.55,0-1-0.45-1-1h2V25z   M42,22h-2c0-0.55,0.45-1,1-1h1V22z M45,25h-1v-1h2C46,24.55,45.55,25,45,25z M44,22v-1h1c0.55,0,1,0.45,1,1H44z"/><text x="0" y="69" fill="#000000" font-size="5px" font-weight="bold" font-family="'Helvetica Neue', Helvetica, Arial-Unicode, Arial, Sans-serif">Created by Gofficon</text><text x="0" y="74" fill="#000000" font-size="5px" font-weight="bold" font-family="'Helvetica Neue', Helvetica, Arial-Unicode, Arial, Sans-serif">from the Noun Project</text></svg>