<svg xmlns="http://www.w3.org/2000/svg" xmlns:xlink="http://www.w3.org/1999/xlink" version="1.1" x="0px" y="0px" viewBox="0 0 54 67.5" style="enable-background:new 0 0 54 54;" xml:space="preserve"><path d="M8.22,38.51c0.36,1.2,1.17,2.11,2.22,2.5c0.01,0,0.01,0.01,0.02,0.01l1.72,0.63l-1.72,0.63c0,0,0,0,0,0  c-2.1,0.76-3.03,3.52-2.07,6.15c0.45,1.22,1.23,2.25,2.22,2.89c0.69,0.45,1.45,0.68,2.18,0.68c0.39,0,0.78-0.07,1.14-0.2  c0,0,0,0,0,0l13.07-4.76l13.09,4.76c0,0,0.01,0,0.01,0c0.37,0.13,0.74,0.2,1.12,0.2c1.79,0,3.62-1.41,4.41-3.57  c0.95-2.62,0.03-5.37-2.06-6.14c-0.01,0-0.01-0.01-0.02-0.01l-1.72-0.63l1.72-0.63c0,0,0,0,0,0c2.13-0.78,3.05-3.48,2.07-6.15  c-0.97-2.67-3.4-4.15-5.54-3.38c0,0,0,0,0,0l-13.07,4.76l-13.09-4.76c-0.01,0-0.02,0-0.03,0c-1.05-0.37-2.25-0.2-3.3,0.49  c-0.98,0.64-1.77,1.67-2.22,2.89C7.94,36.09,7.88,37.39,8.22,38.51z M13.24,49.92c-0.62,0.22-1.24-0.08-1.55-0.28  c-0.62-0.4-1.14-1.09-1.43-1.9c0,0,0,0,0,0c-0.57-1.56-0.17-3.2,0.88-3.58c0.15-0.05,0.31-0.08,0.47-0.08  c0.95,0,2.02,0.92,2.51,2.26C14.68,47.9,14.28,49.54,13.24,49.92z M38.01,45.65c0,0.01,0,0.01,0,0.02l-2.27-0.83  c-0.52-0.19-1.09,0.08-1.28,0.6c-0.19,0.52,0.08,1.09,0.6,1.28l2.59,0.94c-0.01,0.4,0.04,0.79,0.12,1.16l-7.84-2.85l8.97-3.27  l0.96,0.35C39.07,43.68,38.4,44.56,38.01,45.65z M42.39,44.07c0.16,0,0.32,0.03,0.47,0.08c1.04,0.38,1.45,2.02,0.88,3.58  c-0.57,1.56-1.93,2.56-2.98,2.18c-1.04-0.38-1.45-2.02-0.88-3.58C40.37,45,41.44,44.07,42.39,44.07z M40.76,33.37  C40.76,33.37,40.76,33.37,40.76,33.37c0.56-0.2,1.21,0,1.79,0.47l-7.16,2.61c-0.52,0.19-0.79,0.76-0.6,1.28  c0.15,0.41,0.53,0.66,0.94,0.66c0.11,0,0.23-0.02,0.34-0.06l7.65-2.78c0.01,0,0.01-0.01,0.01-0.01c0,0.01,0.01,0.01,0.01,0.02  c0.57,1.56,0.17,3.2-0.88,3.58c0,0,0,0,0,0l-26.61,9.69c0.08-0.37,0.13-0.76,0.12-1.16l7.02-2.56c0.52-0.19,0.79-0.76,0.6-1.28  c-0.19-0.52-0.76-0.79-1.28-0.6L16,45.67c0-0.01,0-0.01,0-0.02c-0.4-1.09-1.06-1.97-1.85-2.59l1.24-0.45c0.01,0,0.02-0.01,0.03-0.01  L40.76,33.37z M10.26,35.55c0-0.01,0.01-0.01,0.01-0.02c0.01,0,0.01,0.01,0.01,0.01l7.65,2.78c0.11,0.04,0.23,0.06,0.34,0.06  c0.41,0,0.79-0.25,0.94-0.66c0.19-0.52-0.08-1.09-0.6-1.28l-7.16-2.61c0.08-0.06,0.15-0.14,0.24-0.19c0.31-0.2,0.92-0.51,1.55-0.28  c0,0,0,0,0.01,0l10.84,3.94l-8.99,3.27l-3.95-1.44c0,0-0.01,0-0.01-0.01c-0.63-0.23-0.9-0.85-1.01-1.21  C9.92,37.23,9.97,36.36,10.26,35.55z M31.6,30.08c-0.46,0.2-0.7,0.71-0.56,1.19C31.16,31.71,31.56,32,32,32c0.05,0,0.09,0,0.14-0.01  c6.34-0.9,9.7-5.16,9.24-11.69C41.05,15.67,38.5,10,36,10c-0.38,0-0.73,0.21-0.89,0.55c-0.62,1.24-1.22,1.92-1.7,2.26  c0.88-3.78-0.57-6.4-2.05-8c-1.77-1.9-3.92-2.72-4.01-2.76c-0.25-0.1-0.54-0.08-0.78,0.03c-0.25,0.12-0.43,0.33-0.52,0.59  C25,5.84,23.71,6.83,22.34,7.89c-1.12,0.86-2.28,1.75-3.23,3.66c-1.94,3.89-1.47,6.78-0.8,8.46c-1.42-0.54-2.4-2.44-2.41-2.46  c-0.18-0.36-0.56-0.57-0.95-0.55c-0.4,0.02-0.75,0.28-0.88,0.66c-1.71,4.7-1.67,8.37,0.11,10.91C16.34,31.67,20.37,32,22,32  c0.55,0,1-0.45,1-1c0-0.52-0.4-0.95-0.91-1c-0.18-0.11-0.61-0.6-0.67-1.27c-0.04-0.41,0.07-0.79,0.32-1.14  c0.12,0.16,0.27,0.33,0.43,0.49c1.09,1.09,2.56,1.4,4.15,0.87c0.31-0.1,0.55-0.35,0.64-0.66c0.09-0.31,0.03-0.65-0.17-0.91  c-0.21-0.26-4.62-6.03,0.03-12.19c0.03,2.12,0.43,4.98,3.87,6.13c0.29,0.1,0.58,0.19,0.86,0.28c1.38,0.43,2.48,0.77,3.21,1.84  c0.53,0.77,0.65,1.66,0.37,2.65C34.61,27.9,32.92,29.5,31.6,30.08z M32.14,19.69c-0.27-0.08-0.54-0.17-0.82-0.26  c-2.37-0.8-2.53-2.61-2.5-5.08c0.01-0.68,0.02-1.33-0.09-1.87c-0.07-0.36-0.33-0.65-0.68-0.76c-0.35-0.11-0.73-0.02-0.99,0.23  c-6.37,6.03-4.25,12.36-2.77,15.18c-0.85-0.27-1.22-1.1-1.34-1.43c-0.1-0.3-0.33-0.53-0.62-0.63c-0.29-0.1-0.62-0.06-0.88,0.11  c-1.68,1.12-2.38,2.81-1.86,4.51c0.01,0.02,0.01,0.04,0.02,0.06c-1.35-0.31-2.84-0.96-3.79-2.32c-1.16-1.65-1.31-4.06-0.47-7.18  c1.06,1.21,2.78,2.45,4.98,1.72c0.31-0.1,0.55-0.36,0.64-0.68s0.01-0.67-0.2-0.92c-0.1-0.12-2.36-2.9,0.14-7.9  c0.75-1.5,1.64-2.18,2.66-2.97c1.33-1.02,2.81-2.17,4.01-5.11c1.83,1,5.56,3.79,3.5,9.28c-0.18,0.48,0.03,1.02,0.49,1.25  c0.15,0.07,0.92,0.42,2.01,0.05c1.05-0.35,2.01-1.24,2.85-2.63c1.16,1.18,3.2,5.4,2.99,9.76c-0.11,2.15-0.81,4.66-3.12,6.31  c0.33-0.55,0.6-1.13,0.77-1.74c0.45-1.56,0.22-3.06-0.64-4.33C35.28,20.67,33.68,20.17,32.14,19.69z"/><text x="0" y="69" fill="#000000" font-size="5px" font-weight="bold" font-family="'Helvetica Neue', Helvetica, Arial-Unicode, Arial, Sans-serif">Created by Gofficon</text><text x="0" y="74" fill="#000000" font-size="5px" font-weight="bold" font-family="'Helvetica Neue', Helvetica, Arial-Unicode, Arial, Sans-serif">from the Noun Project</text></svg>