<svg xmlns="http://www.w3.org/2000/svg" xmlns:xlink="http://www.w3.org/1999/xlink" version="1.1" x="0px" y="0px" viewBox="0 0 54 67.5" style="enable-background:new 0 0 54 54;" xml:space="preserve"><path d="M48.14,27.77C49.23,27.32,50,26.25,50,25V13c0-1.65-1.35-3-3-3V5c0-1.65-1.35-3-3-3h-6c-1.65,0-3,1.35-3,3v5  c-1.3,0-2.4,0.84-2.82,2H21.82c-0.41-1.16-1.51-2-2.82-2V5c0-1.65-1.35-3-3-3h-6C8.35,2,7,3.35,7,5v5c-1.65,0-3,1.35-3,3v12  c0,1.25,0.77,2.32,1.86,2.77L2.4,48.51c-0.15,0.87,0.1,1.76,0.67,2.43C3.64,51.61,4.48,52,5.36,52h15.28c0.88,0,1.72-0.39,2.29-1.06  c0.57-0.67,0.82-1.56,0.67-2.43l-3.46-20.74c0.78-0.32,1.39-0.97,1.67-1.77h10.37c0.29,0.8,0.89,1.45,1.67,1.77L30.4,48.51  c-0.15,0.87,0.1,1.76,0.67,2.43c0.57,0.67,1.41,1.06,2.29,1.06h15.28c0.88,0,1.72-0.39,2.29-1.06c0.57-0.67,0.82-1.56,0.67-2.43  L48.14,27.77z M9,5c0-0.55,0.45-1,1-1h6c0.55,0,1,0.45,1,1v1H9V5z M9,8h8v2H9V8z M6,13c0-0.55,0.45-1,1-1h1h10h1c0.55,0,1,0.45,1,1  v12c0,0.55-0.45,1-1,1H7c-0.55,0-1-0.45-1-1V13z M21.63,48.83c0.05,0.29-0.03,0.58-0.22,0.81C21.21,49.87,20.94,50,20.64,50H5.36  c-0.3,0-0.57-0.13-0.76-0.35c-0.19-0.23-0.27-0.52-0.22-0.81L4.51,48h16.97L21.63,48.83z M21.15,46H4.85l3-18h10.31L21.15,46z   M32,24H22V14h10V24z M37,5c0-0.55,0.45-1,1-1h6c0.55,0,1,0.45,1,1v1h-8V5z M37,8h8v2h-8V8z M34,13c0-0.55,0.45-1,1-1h1h10h1  c0.55,0,1,0.45,1,1v12c0,0.55-0.45,1-1,1H35c-0.55,0-1-0.45-1-1V13z M35.85,28h10.31l3,18H32.85L35.85,28z M49.4,49.65  C49.21,49.87,48.94,50,48.64,50H33.36c-0.3,0-0.57-0.13-0.76-0.35c-0.19-0.23-0.27-0.52-0.22-0.81L32.51,48h16.97l0.14,0.83  C49.67,49.13,49.6,49.42,49.4,49.65z M24,19c0-0.55,0.45-1,1-1h4c0.55,0,1,0.45,1,1s-0.45,1-1,1h-4C24.45,20,24,19.55,24,19z"/><text x="0" y="69" fill="#000000" font-size="5px" font-weight="bold" font-family="'Helvetica Neue', Helvetica, Arial-Unicode, Arial, Sans-serif">Created by Gofficon</text><text x="0" y="74" fill="#000000" font-size="5px" font-weight="bold" font-family="'Helvetica Neue', Helvetica, Arial-Unicode, Arial, Sans-serif">from the Noun Project</text></svg>