<svg xmlns="http://www.w3.org/2000/svg" xmlns:xlink="http://www.w3.org/1999/xlink" version="1.1" x="0px" y="0px" viewBox="0 0 54 67.5" style="enable-background:new 0 0 54 54;" xml:space="preserve"><path d="M9.06,38.18C9,37.63,9.4,37.14,9.95,37.08c0.57-0.06,1.04,0.34,1.1,0.89c0.39,3.62,2.9,6.62,6.39,7.66  c0.53,0.16,0.83,0.71,0.67,1.24c-0.13,0.43-0.53,0.71-0.96,0.71c-0.09,0-0.19-0.01-0.29-0.04C12.6,46.28,9.54,42.6,9.06,38.18z   M51,29v8c0,1.65-1.35,3-3,3h-5.3C41.3,46.84,35.24,52,28,52h-8c-8.27,0-15-6.73-15-15V24.82C3.84,24.4,3,23.3,3,22  c0-1.65,1.35-3,3-3h36c1.65,0,3,1.35,3,3c0,1.3-0.84,2.4-2,2.82V26h5C49.65,26,51,27.35,51,29z M41,25H7v12c0,7.17,5.83,13,13,13h8  c7.17,0,13-5.83,13-13V27V25z M43,22c0-0.55-0.45-1-1-1H6c-0.55,0-1,0.45-1,1s0.45,1,1,1h36C42.55,23,43,22.55,43,22z M49,29  c0-0.55-0.45-1-1-1h-5v9v1h5c0.55,0,1-0.45,1-1V29z M30.71,5.29c-0.39-0.39-1.02-0.39-1.41,0c-1.24,1.24-3.07,4.35-1.12,7.26  c0.56,0.84,0.81,1.58,0.69,2.07c-0.08,0.33-0.31,0.48-0.31,0.48c-0.49,0.25-0.69,0.85-0.45,1.34C28.28,16.8,28.63,17,29,17  c0.15,0,0.3-0.03,0.45-0.11c0.1-0.05,1.03-0.54,1.34-1.73c0.29-1.09-0.03-2.34-0.96-3.72c-1.51-2.26,0.77-4.63,0.88-4.74  C31.1,6.31,31.1,5.68,30.71,5.29z M24.51,2.14c-0.47-0.28-1.09-0.13-1.37,0.34c-0.14,0.23-3.3,5.58-0.97,9.07  c1.47,2.21,0.26,3.6,0.12,3.74c-0.39,0.39-0.39,1.02,0,1.41C22.49,16.9,22.74,17,23,17s0.51-0.1,0.71-0.29  c0.89-0.89,2.07-3.35,0.12-6.26c-1.35-2.02,0.28-5.69,1.03-6.93C25.14,3.04,24.99,2.43,24.51,2.14z M18.71,5.29  c-0.39-0.39-1.02-0.39-1.41,0c-1.24,1.24-3.07,4.35-1.12,7.26c0.56,0.84,0.81,1.58,0.69,2.07c-0.08,0.33-0.31,0.48-0.31,0.48  c-0.49,0.25-0.69,0.85-0.45,1.34C16.28,16.8,16.63,17,17,17c0.15,0,0.3-0.03,0.45-0.11c0.1-0.05,1.03-0.54,1.34-1.73  c0.29-1.09-0.03-2.34-0.96-3.72c-1.51-2.26,0.77-4.63,0.88-4.74C19.1,6.31,19.1,5.68,18.71,5.29z"/><text x="0" y="69" fill="#000000" font-size="5px" font-weight="bold" font-family="'Helvetica Neue', Helvetica, Arial-Unicode, Arial, Sans-serif">Created by Gofficon</text><text x="0" y="74" fill="#000000" font-size="5px" font-weight="bold" font-family="'Helvetica Neue', Helvetica, Arial-Unicode, Arial, Sans-serif">from the Noun Project</text></svg>