<svg xmlns="http://www.w3.org/2000/svg" xmlns:xlink="http://www.w3.org/1999/xlink" version="1.1" x="0px" y="0px" viewBox="0 0 54 67.5" style="enable-background:new 0 0 54 54;" xml:space="preserve"><path d="M24,32c0,0.55-0.45,1-1,1c-0.55,0-1,0.45-1,1v6c0,0.55-0.45,1-1,1s-1-0.45-1-1v-6c0-1.65,1.35-3,3-3  C23.55,31,24,31.45,24,32z M16,18h22c0.55,0,1,0.45,1,1s-0.45,1-1,1h-1.59L32,24.41v2.67c3.39,0.49,6,3.4,6,6.92v17  c0,0.55-0.45,1-1,1H17c-0.55,0-1-0.45-1-1V34c0-3.52,2.61-6.43,6-6.92V27h-3c-0.55,0-1-0.45-1-1s0.45-1,1-1h3v-0.59L17.59,20H16  c-0.55,0-1-0.45-1-1S15.45,18,16,18z M31,29h-8c-2.76,0-5,2.24-5,5v16h18V34C36,31.24,33.76,29,31,29z M30,27v-2h-6v2H30z M20.41,20  l3,3h7.17l3-3H20.41z M22.83,9.45c-0.21-0.32-0.58-0.49-0.96-0.44c-0.38,0.05-0.7,0.31-0.82,0.67c-0.78,2.34-0.69,4.2,0.27,5.52  C22.6,16.98,24.9,17,25,17c0.55,0,0.99-0.44,1-0.99c0-0.55-0.44-1-0.99-1.01c-0.01,0-1.4-0.03-2.07-0.97  c-0.37-0.52-0.45-1.21-0.38-1.93c1.06,0.89,2.47,1.51,3.9,0.79c0.27-0.13,0.46-0.38,0.53-0.68c0.07-0.29,0-0.6-0.19-0.84  c-0.29-0.37-2.46-3.3-0.5-6.19c0.26,0.95,0.75,1.93,1.67,2.4c0.74,0.37,1.58,0.34,2.51-0.1c0.72,2.25,1.27,5.36,0.34,6.73  C30.59,14.56,30.15,15,29,15c-0.55,0-1,0.45-1,1s0.45,1,1,1c1.94,0,2.96-0.9,3.47-1.66c2.04-3.02-0.27-9.04-0.54-9.71  c-0.12-0.29-0.36-0.51-0.66-0.59c-0.3-0.08-0.62-0.02-0.87,0.16c-0.69,0.52-1.26,0.74-1.55,0.6C28.31,5.53,28,3.97,28,3  c0-0.38-0.22-0.73-0.57-0.9c-0.35-0.16-0.76-0.12-1.06,0.12c-2.98,2.39-3.13,5.12-2.73,6.99c0.13,0.6,0.32,1.14,0.53,1.62  C23.44,10.31,22.84,9.46,22.83,9.45z"/><text x="0" y="69" fill="#000000" font-size="5px" font-weight="bold" font-family="'Helvetica Neue', Helvetica, Arial-Unicode, Arial, Sans-serif">Created by Gofficon</text><text x="0" y="74" fill="#000000" font-size="5px" font-weight="bold" font-family="'Helvetica Neue', Helvetica, Arial-Unicode, Arial, Sans-serif">from the Noun Project</text></svg>