<svg xmlns="http://www.w3.org/2000/svg" xmlns:xlink="http://www.w3.org/1999/xlink" version="1.1" x="0px" y="0px" viewBox="0 0 54 67.5" style="enable-background:new 0 0 54 54;" xml:space="preserve"><path d="M41,29h-2c-0.55,0-1,0.45-1,1s0.45,1,1,1h2c4.96,0,9,4.04,9,9v2H28.61c-0.2,0-0.39-0.06-0.55-0.17l-1.99-1.33  c-0.49-0.33-1.07-0.5-1.66-0.5h-18c-1.54-5.62-2.01-11.41-1.36-17.21l0.88-7.92C6.26,14.95,6.62,15,7,15h19.17  c0.04,0.2,0.09,0.44,0.15,0.7l-3.66,1.36c-0.52,0.19-0.78,0.77-0.59,1.29C22.21,18.75,22.59,19,23,19c0.12,0,0.23-0.02,0.35-0.06  l3.47-1.29c0.24,0.84,0.54,1.78,0.92,2.76l-3.2,1.7c-0.49,0.26-0.67,0.87-0.41,1.35C24.3,23.81,24.64,24,25,24  c0.16,0,0.32-0.04,0.47-0.12l3.04-1.62c0.57,1.24,1.26,2.49,2.08,3.67l-3.17,2.25c-0.45,0.32-0.55,0.94-0.23,1.39  C27.38,29.85,27.69,30,28,30c0.2,0,0.4-0.06,0.58-0.19l3.25-2.31c0.73,0.82,1.55,1.57,2.46,2.2c0.3,0.21,0.38,0.51,0.39,0.68  c0.03,0.31-0.08,0.6-0.29,0.82l-2.09,2.09c-0.39,0.39-0.39,1.02,0,1.41C32.49,34.9,32.74,35,33,35s0.51-0.1,0.71-0.29l2.09-2.09  c0.64-0.64,0.96-1.52,0.87-2.42c-0.08-0.87-0.54-1.65-1.25-2.14c-4.76-3.26-6.71-10.69-7.26-13.29C29.24,14.31,30,13.24,30,12V8  c0-1.65-1.35-3-3-3H7c-2.76,0-5,2.24-5,5c0,1.63,0.79,3.06,2,3.97l-0.96,8.6c-0.67,6.03-0.19,12.03,1.4,17.88  C3.58,40.98,3,41.92,3,43v3c0,1.65,1.35,3,3,3h1c0.27,0,0.52-0.11,0.71-0.29L8,48.41l0.29,0.29c0.39,0.39,1.02,0.39,1.41,0L10,48.41  l0.29,0.29c0.39,0.39,1.02,0.39,1.41,0L12,48.41l0.29,0.29c0.39,0.39,1.02,0.39,1.41,0L14,48.41l0.29,0.29  c0.39,0.39,1.02,0.39,1.41,0L16,48.41l0.29,0.29c0.39,0.39,1.02,0.39,1.41,0L18,48.41l0.29,0.29c0.39,0.39,1.02,0.39,1.41,0  L20,48.41l0.29,0.29C20.48,48.9,20.74,49,21,49c0.13,0,0.26-0.02,0.38-0.08C21.76,48.77,22,48.4,22,48v-0.26  c0-0.54,0.37-0.8,0.53-0.88c0.16-0.09,0.58-0.25,1.03,0.05l2.39,1.59c0.49,0.33,1.07,0.5,1.66,0.5H28c0.27,0,0.52-0.11,0.71-0.29  l0.29-0.29l0.27,0.28c0.19,0.19,0.44,0.3,0.71,0.3c0.31-0.01,0.52-0.1,0.71-0.29l0.3-0.29l0.26,0.27c0.18,0.19,0.44,0.3,0.7,0.31  c0.31,0,0.52-0.09,0.71-0.28L33.4,48h0.18l0.71,0.71c0.39,0.39,1.02,0.39,1.41,0L36,48.41l0.29,0.29c0.39,0.39,1.02,0.39,1.41,0  L38,48.41l0.29,0.29c0.39,0.39,1.02,0.39,1.41,0L40,48.41l0.29,0.29c0.39,0.39,1.02,0.39,1.41,0L42,48.41l0.29,0.29  c0.39,0.39,1.02,0.39,1.41,0L44,48.41l0.29,0.29c0.39,0.39,1.02,0.39,1.41,0L46,48.41l0.29,0.29c0.38,0.38,1.04,0.38,1.41,0  L48,48.41l0.29,0.29C48.48,48.89,48.73,49,49,49c1.65,0,3-1.35,3-3v-6C52,33.93,47.07,29,41,29z M4,10c0-1.65,1.35-3,3-3h20  c0.55,0,1,0.45,1,1v1H17c-0.55,0-1,0.45-1,1s0.45,1,1,1h11v1c0,0.55-0.45,1-1,1H7C5.35,13,4,11.65,4,10z M50,46  c0,0.43-0.27,0.79-0.65,0.94l-0.64-0.64c-0.39-0.39-1.02-0.39-1.41,0L47,46.59l-0.29-0.29c-0.39-0.39-1.02-0.39-1.41,0L45,46.59  l-0.29-0.29c-0.39-0.39-1.02-0.39-1.41,0L43,46.59l-0.29-0.29c-0.39-0.39-1.02-0.39-1.41,0L41,46.59l-0.29-0.29  c-0.39-0.39-1.02-0.39-1.41,0L39,46.59l-0.29-0.29c-0.39-0.39-1.02-0.39-1.41,0L37,46.59l-0.29-0.29c-0.39-0.39-1.02-0.39-1.41,0  L35,46.59l-0.29-0.29C34.52,46.11,34.27,46,34,46h-1c-0.26,0-0.51,0.1-0.69,0.28l-0.32,0.31l-0.27-0.28  c-0.18-0.19-0.44-0.3-0.71-0.31c-0.25,0.01-0.52,0.1-0.72,0.29l-0.31,0.3l-0.28-0.29C29.53,46.11,29.27,46,29,46c0,0,0,0,0,0  c-0.27,0-0.52,0.11-0.71,0.29L27.59,47c-0.19,0-0.38-0.06-0.54-0.17l-2.39-1.59c-0.92-0.61-2.1-0.67-3.08-0.15  c-0.46,0.25-0.84,0.6-1.11,1.03c-0.38-0.2-0.86-0.15-1.18,0.17L19,46.59l-0.29-0.29c-0.39-0.39-1.02-0.39-1.41,0L17,46.59  l-0.29-0.29c-0.39-0.39-1.02-0.39-1.41,0L15,46.59l-0.29-0.29c-0.39-0.39-1.02-0.39-1.41,0L13,46.59l-0.29-0.29  c-0.39-0.39-1.02-0.39-1.41,0L11,46.59l-0.29-0.29c-0.39-0.39-1.02-0.39-1.41,0L9,46.59l-0.29-0.29c-0.38-0.38-1.04-0.38-1.41,0  L6.59,47H6c-0.55,0-1-0.45-1-1v-3c0-0.55,0.45-1,1-1h18.39c0.2,0,0.39,0.06,0.55,0.17l1.99,1.33c0.49,0.33,1.07,0.5,1.66,0.5H50V46z   M26.57,35.18c0.45,0.32,0.56,0.94,0.25,1.39C26.62,36.85,26.31,37,26,37c-0.2,0-0.4-0.06-0.57-0.18C15.12,29.6,15,18.47,15,18  c0-0.55,0.45-1,1-1c0,0,0,0,0,0c0.55,0,1,0.45,1,1C17,18.1,17.14,28.58,26.57,35.18z"/><text x="0" y="69" fill="#000000" font-size="5px" font-weight="bold" font-family="'Helvetica Neue', Helvetica, Arial-Unicode, Arial, Sans-serif">Created by Gofficon</text><text x="0" y="74" fill="#000000" font-size="5px" font-weight="bold" font-family="'Helvetica Neue', Helvetica, Arial-Unicode, Arial, Sans-serif">from the Noun Project</text></svg>