<svg xmlns="http://www.w3.org/2000/svg" xmlns:xlink="http://www.w3.org/1999/xlink" version="1.1" x="0px" y="0px" viewBox="0 0 54 67.5" style="enable-background:new 0 0 54 54;" xml:space="preserve"><path d="M7,52h3c0,0,0,0,0,0c0,0,0,0,0,0H44c0,0,0,0,0,0c0,0,0,0,0,0h3c0.55,0,1-0.45,1-1s-0.45-1-1-1h-2.35L28.09,12.14l3.82-8.74  c0.22-0.51-0.01-1.1-0.52-1.32c-0.51-0.22-1.1,0.01-1.32,0.52L27,9.65L23.92,2.6c-0.22-0.51-0.81-0.74-1.32-0.52  c-0.51,0.22-0.74,0.81-0.52,1.32l3.82,8.74L9.35,50H7c-0.55,0-1,0.45-1,1S6.45,52,7,52z M20.36,50c1.93-2.2,5.01-6.43,6.64-12.38  c1.63,5.96,4.71,10.18,6.64,12.38H20.36z M27,14.64L42.47,50H36.4c-1.32-1.28-7.55-7.82-8.4-18.08c0-0.04-0.02-0.07-0.03-0.11  c-0.01-0.07-0.03-0.13-0.06-0.19c-0.03-0.06-0.06-0.11-0.09-0.17c-0.03-0.05-0.07-0.1-0.11-0.14c-0.05-0.05-0.1-0.09-0.16-0.13  c-0.05-0.03-0.1-0.06-0.15-0.08c-0.07-0.03-0.13-0.05-0.21-0.06c-0.04-0.01-0.07-0.03-0.1-0.03c-0.03,0-0.05,0.01-0.08,0.01  c-0.03,0-0.05-0.01-0.08-0.01c-0.04,0-0.07,0.02-0.11,0.03c-0.07,0.01-0.14,0.03-0.21,0.06c-0.05,0.02-0.1,0.05-0.15,0.08  c-0.06,0.04-0.11,0.08-0.16,0.13c-0.04,0.04-0.07,0.09-0.11,0.14c-0.04,0.06-0.07,0.11-0.1,0.17c-0.03,0.06-0.04,0.12-0.05,0.19  c-0.01,0.04-0.03,0.07-0.03,0.11c-0.85,10.26-7.08,16.8-8.4,18.08h-6.07L27,14.64z"/><text x="0" y="69" fill="#000000" font-size="5px" font-weight="bold" font-family="'Helvetica Neue', Helvetica, Arial-Unicode, Arial, Sans-serif">Created by Gofficon</text><text x="0" y="74" fill="#000000" font-size="5px" font-weight="bold" font-family="'Helvetica Neue', Helvetica, Arial-Unicode, Arial, Sans-serif">from the Noun Project</text></svg>