<svg xmlns="http://www.w3.org/2000/svg" xmlns:xlink="http://www.w3.org/1999/xlink" version="1.1" x="0px" y="0px" viewBox="0 0 54 67.5" style="enable-background:new 0 0 54 54;" xml:space="preserve"><path d="M11,50c-0.55,0-1,0.45-1,1s0.45,1,1,1h6c0.24,0,0.47-0.09,0.66-0.25L27,43.63l9.34,8.12C36.53,51.91,36.76,52,37,52h6  c0.55,0,1-0.45,1-1s-0.45-1-1-1h-2V32h2c0.55,0,1-0.45,1-1v-4c0-0.55-0.45-1-1-1h-2V13V3c0-0.55-0.45-1-1-1H14c-0.55,0-1,0.45-1,1  v10v13h-2c-0.55,0-1,0.45-1,1v4c0,0.55,0.45,1,1,1h2v18H11z M16.63,50H15V33.19l10.48,9.11L16.63,50z M16.67,32h20.65L27,40.98  L16.67,32z M39,50h-1.63l-8.85-7.7L39,33.19V50z M15,8h8c0.55,0,1-0.45,1-1s-0.45-1-1-1h-8V4h24v8H15V8z M15,14h24v12H15V14z M12,30  v-2h2h26h2v2h-2H14H12z M30,7c0,0.55-0.45,1-1,1h-2c-0.55,0-1-0.45-1-1s0.45-1,1-1h2C29.55,6,30,6.45,30,7z"/><text x="0" y="69" fill="#000000" font-size="5px" font-weight="bold" font-family="'Helvetica Neue', Helvetica, Arial-Unicode, Arial, Sans-serif">Created by Gofficon</text><text x="0" y="74" fill="#000000" font-size="5px" font-weight="bold" font-family="'Helvetica Neue', Helvetica, Arial-Unicode, Arial, Sans-serif">from the Noun Project</text></svg>