<svg xmlns="http://www.w3.org/2000/svg" xmlns:xlink="http://www.w3.org/1999/xlink" version="1.1" x="0px" y="0px" viewBox="0 0 54 67.5" style="enable-background:new 0 0 54 54;" xml:space="preserve"><path d="M39.13,25.37c-1.22-3.18-3.65-5.76-6.73-7.18c-0.03-0.01-0.06-0.03-0.09-0.04C30.69,17.42,28.89,17,27,17  c-1.6,0-3.12,0.3-4.53,0.83c-0.03,0.01-0.07,0.02-0.1,0.04c-3.19,1.22-5.77,3.66-7.19,6.74c-0.01,0.03-0.03,0.05-0.04,0.07  C14.42,26.31,14,28.11,14,30c0,1.59,0.3,3.12,0.83,4.53c0.01,0.03,0.02,0.07,0.04,0.1c1.2,3.13,3.57,5.68,6.59,7.11  c0.06,0.04,0.12,0.07,0.19,0.09C23.28,42.58,25.09,43,27,43c1.55,0,3.04-0.29,4.42-0.79c0.05-0.01,0.1-0.03,0.15-0.05  c3.21-1.21,5.82-3.66,7.24-6.76c0.01-0.03,0.03-0.05,0.04-0.08C39.58,33.69,40,31.89,40,30c0-1.6-0.3-3.12-0.83-4.53  C39.16,25.44,39.15,25.4,39.13,25.37z M23.63,19.53C24.69,19.19,25.82,19,27,19c0.93,0,1.84,0.13,2.71,0.35  c-2.06,1.6-3.05,3.64-3.44,4.7c-0.87,0.11-1.69,0.41-2.4,0.85C23.44,23.74,22.99,21.75,23.63,19.53z M21.38,20.56  c-0.32,2.59,0.42,4.73,0.89,5.76c-0.52,0.67-0.9,1.45-1.11,2.3c-1.11-0.52-2.83-1.6-3.95-3.63C18.17,23.15,19.61,21.62,21.38,20.56z   M16.53,33.37C16.19,32.31,16,31.18,16,30c0-0.93,0.13-1.84,0.35-2.71c1.6,2.06,3.64,3.05,4.7,3.44c0.11,0.87,0.41,1.69,0.85,2.4  C20.74,33.56,18.75,34.01,16.53,33.37z M21.99,39.78c-1.84-0.95-3.37-2.39-4.43-4.16c0.43,0.05,0.86,0.09,1.26,0.09  c2.03,0,3.64-0.59,4.5-0.98c0.67,0.52,1.45,0.9,2.3,1.11C25.09,36.95,24.01,38.67,21.99,39.78z M30.37,40.47  C29.31,40.81,28.18,41,27,41c-0.93,0-1.84-0.13-2.71-0.35c2.06-1.6,3.05-3.64,3.44-4.7c0.87-0.11,1.69-0.4,2.4-0.85  C30.56,36.26,31.01,38.25,30.37,40.47z M27,34c-2.21,0-4-1.79-4-4s1.79-4,4-4c2.21,0,4,1.79,4,4S29.21,34,27,34z M30.68,25.27  c-0.67-0.52-1.45-0.9-2.29-1.1c0.52-1.11,1.61-2.84,3.62-3.95c1.84,0.95,3.37,2.39,4.43,4.16C33.85,24.06,31.71,24.8,30.68,25.27z   M32.62,39.44c0.32-2.59-0.42-4.73-0.89-5.76c0.52-0.67,0.9-1.45,1.1-2.29c1.11,0.52,2.84,1.61,3.95,3.62  C35.83,36.85,34.39,38.38,32.62,39.44z M37.65,32.71c-1.6-2.06-3.64-3.05-4.7-3.44c-0.11-0.87-0.41-1.69-0.85-2.4  c1.16-0.42,3.15-0.87,5.37-0.23C37.81,27.69,38,28.82,38,30C38,30.93,37.87,31.84,37.65,32.71z M49,13H38.54l-3.11-4.66  C34.87,7.5,33.93,7,32.93,7H21.07c-1.01,0-1.94,0.5-2.5,1.34L15.46,13H12v-1c0-1.65-1.35-3-3-3s-3,1.35-3,3v1H5c-1.65,0-3,1.35-3,3  v28c0,1.65,1.35,3,3,3h44c1.65,0,3-1.35,3-3V16C52,14.35,50.65,13,49,13z M20.24,9.45C20.42,9.17,20.74,9,21.07,9h11.86  c0.33,0,0.65,0.17,0.83,0.45L36.13,13H17.87L20.24,9.45z M8,12c0-0.55,0.45-1,1-1s1,0.45,1,1v1H8V12z M50,44c0,0.55-0.45,1-1,1H5  c-0.55,0-1-0.45-1-1V16c0-0.55,0.45-1,1-1h2h4h5h22h11c0.55,0,1,0.45,1,1V44z M45,17c-1.65,0-3,1.35-3,3s1.35,3,3,3s3-1.35,3-3  S46.65,17,45,17z M45,21c-0.55,0-1-0.45-1-1s0.45-1,1-1s1,0.45,1,1S45.55,21,45,21z M10,18v24c0,0.55-0.45,1-1,1s-1-0.45-1-1V18  c0-0.55,0.45-1,1-1S10,17.45,10,18z"/><text x="0" y="69" fill="#000000" font-size="5px" font-weight="bold" font-family="'Helvetica Neue', Helvetica, Arial-Unicode, Arial, Sans-serif">Created by Gofficon</text><text x="0" y="74" fill="#000000" font-size="5px" font-weight="bold" font-family="'Helvetica Neue', Helvetica, Arial-Unicode, Arial, Sans-serif">from the Noun Project</text></svg>