<svg xmlns="http://www.w3.org/2000/svg" xmlns:xlink="http://www.w3.org/1999/xlink" version="1.1" x="0px" y="0px" viewBox="0 0 54 67.5" style="enable-background:new 0 0 54 54;" xml:space="preserve"><path d="M51,50h-2.29L36.94,16.67c-0.01-0.02-0.02-0.03-0.03-0.05c-0.03-0.06-0.07-0.12-0.11-0.18c-0.04-0.05-0.07-0.1-0.11-0.15  c-0.04-0.04-0.09-0.07-0.14-0.1c-0.06-0.04-0.12-0.08-0.19-0.11c-0.02-0.01-0.03-0.02-0.04-0.03c-0.04-0.01-0.08-0.01-0.12-0.02  c-0.07-0.02-0.14-0.03-0.21-0.03c-0.07,0-0.14,0.01-0.21,0.03c-0.04,0.01-0.08,0-0.12,0.02c-0.02,0.01-0.03,0.02-0.04,0.03  c-0.07,0.03-0.13,0.07-0.19,0.11c-0.05,0.03-0.1,0.06-0.14,0.1c-0.04,0.04-0.07,0.1-0.11,0.15c-0.04,0.06-0.08,0.11-0.11,0.18  c-0.01,0.02-0.02,0.03-0.03,0.04L23.29,50H7.36l5.05-16.07l3.28-0.82l2.6,2.6C18.48,35.9,18.74,36,19,36c0.02,0,0.05,0,0.07,0  c0.29-0.02,0.56-0.17,0.73-0.4l2.15-2.87l1.22,1.82c0.31,0.46,0.93,0.58,1.39,0.28l3-2c0.46-0.31,0.58-0.93,0.28-1.39  c-0.31-0.46-0.93-0.58-1.39-0.28l-2.17,1.45l-1.45-2.17c-0.18-0.27-0.48-0.44-0.8-0.44c-0.32-0.01-0.63,0.14-0.83,0.4l-2.31,3.08  l-2.18-2.18c-0.25-0.25-0.61-0.35-0.95-0.26l-2.64,0.66l4.09-13.03l1.89,3.79c0.19,0.37,0.58,0.59,1,0.55  c0.41-0.04,0.76-0.34,0.86-0.74L25.14,6.4l4.92,13.93c0.18,0.52,0.75,0.8,1.28,0.61c0.52-0.18,0.79-0.75,0.61-1.28l-6-17  C25.8,2.25,25.39,1.98,24.96,2c-0.44,0.02-0.81,0.32-0.93,0.74l-4.32,16.43l-1.81-3.63c-0.18-0.36-0.57-0.58-0.97-0.55  c-0.41,0.03-0.75,0.31-0.87,0.7L5.27,50H3c-0.55,0-1,0.45-1,1s0.45,1,1,1h3c0,0,0,0,0,0s0,0,0,0H24c0,0,0,0,0,0c0,0,0,0,0,0H48  c0,0,0,0,0,0c0,0,0,0,0,0h3c0.55,0,1-0.45,1-1S51.55,50,51,50z M36,20l4.59,13h-1.91l-1.75-4.37c-0.12-0.31-0.4-0.54-0.73-0.61  c-0.33-0.07-0.67,0.04-0.91,0.27l-1.14,1.14l-0.97-1.46L36,20z M25.41,50l6.94-19.67l0.81,1.22c0.17,0.25,0.44,0.41,0.73,0.44  c0.3,0.03,0.59-0.08,0.81-0.29l0.93-0.93l1.44,3.59C37.22,34.75,37.59,35,38,35h3.29l5.29,15H25.41z"/><text x="0" y="69" fill="#000000" font-size="5px" font-weight="bold" font-family="'Helvetica Neue', Helvetica, Arial-Unicode, Arial, Sans-serif">Created by Gofficon</text><text x="0" y="74" fill="#000000" font-size="5px" font-weight="bold" font-family="'Helvetica Neue', Helvetica, Arial-Unicode, Arial, Sans-serif">from the Noun Project</text></svg>