<svg xmlns="http://www.w3.org/2000/svg" xmlns:xlink="http://www.w3.org/1999/xlink" version="1.1" x="0px" y="0px" viewBox="0 0 54 67.5" style="enable-background:new 0 0 54 54;" xml:space="preserve"><path d="M45.4,23.53c1.58-2.04,2.88-4.17,3.9-6.26c0.09-0.1,0.17-0.22,0.22-0.36c0.01-0.03,0-0.06,0.01-0.1  c2.77-5.88,3.27-11.35,1.14-13.48c-2.13-2.13-7.6-1.63-13.48,1.14c-0.03,0.01-0.06,0-0.1,0.01c-0.14,0.05-0.27,0.13-0.37,0.22  c-1.78,0.87-3.58,1.95-5.34,3.22c-0.11,0.05-0.2,0.12-0.29,0.21c-1.44,1.06-2.85,2.24-4.17,3.56c-7.25,7.25-10.81,20.5-11.82,24.9  c-1.26-0.62-3.32-1.41-5.68-1.41c-3.81,0-6.85,2.06-6.98,2.15C2.16,37.53,2,37.84,2,38.17S2.16,38.81,2.43,39  c0.13,0.09,3.17,2.15,6.98,2.15c1.6,0,3.06-0.37,4.24-0.79c-0.43,1.17-0.79,2.63-0.79,4.24c0,3.81,2.06,6.85,2.15,6.98  C15.19,51.84,15.5,52,15.83,52s0.64-0.16,0.82-0.43c0.09-0.13,2.15-3.17,2.15-6.98c0-2.36-0.79-4.42-1.41-5.68  c4.4-1.02,17.64-4.57,24.9-11.83c1.1-1.1,2.11-2.26,3.04-3.46C45.35,23.6,45.37,23.57,45.4,23.53z M46.53,4.01  c1.28,0,2.23,0.26,2.72,0.75C50.5,6.01,50.21,10.3,48,15.33c-4.57-1.69-7.63-4.76-9.33-9.33C41.74,4.64,44.54,4.01,46.53,4.01z   M9.41,39.14c-1.68,0-3.22-0.5-4.29-0.97C6.2,37.7,7.73,37.2,9.41,37.2c1.68,0,3.22,0.5,4.29,0.97  C12.63,38.64,11.1,39.14,9.41,39.14z M15.83,48.88c-0.47-1.07-0.97-2.6-0.97-4.3c0-1.68,0.5-3.22,0.97-4.29  c0.47,1.08,0.97,2.61,0.97,4.29C16.8,46.27,16.3,47.81,15.83,48.88z M17.08,36.92c0.21-0.87,0.51-2.07,0.92-3.49  c0.93,0.69,1.79,0.81,2.51,0.91c0.74,0.1,1.27,0.17,1.93,0.83c0.07,0.07,0.13,0.14,0.18,0.21C20.31,36.11,18.34,36.62,17.08,36.92z   M24.62,34.72c-0.2-0.34-0.45-0.66-0.76-0.97c-1.15-1.15-2.22-1.29-3.09-1.4c-0.74-0.1-1.27-0.17-1.94-0.83  c-0.07-0.07-0.13-0.14-0.19-0.21c0.35-1.1,0.74-2.27,1.19-3.48c0.19,0.51,0.51,1.06,1.07,1.62c1.15,1.15,2.22,1.29,3.09,1.4  c0.74,0.1,1.27,0.17,1.93,0.83c0.67,0.67,0.74,1.2,0.83,1.94c0.01,0.1,0.03,0.2,0.05,0.3C26.06,34.21,25.33,34.48,24.62,34.72z   M28.72,33.16c-0.11-0.83-0.31-1.83-1.37-2.89c-1.15-1.15-2.22-1.29-3.09-1.4c-0.74-0.1-1.27-0.17-1.93-0.83  c-0.66-0.66-0.73-1.19-0.83-1.92c-0.06-0.47-0.13-0.99-0.36-1.55c0.45-1.04,0.93-2.07,1.45-3.1c0.28,0.45,0.34,0.88,0.41,1.41  c0.11,0.86,0.25,1.94,1.39,3.08c1.15,1.15,2.23,1.29,3.09,1.4c0.74,0.1,1.27,0.17,1.93,0.83c0.67,0.67,0.74,1.2,0.83,1.93  c0.08,0.61,0.18,1.32,0.63,2.09C30.16,32.55,29.44,32.86,28.72,33.16z M32.68,31.33c-0.31-0.47-0.37-0.91-0.45-1.47  c-0.11-0.87-0.25-1.94-1.4-3.09c-1.15-1.15-2.22-1.29-3.09-1.4c-0.74-0.1-1.27-0.17-1.94-0.83c-0.66-0.66-0.73-1.19-0.83-1.92  c-0.11-0.86-0.25-1.93-1.38-3.06c0.49-0.86,1-1.7,1.55-2.51c0.16,0.1,0.32,0.22,0.5,0.4c0.67,0.67,0.74,1.2,0.83,1.94  c0.11,0.86,0.25,1.94,1.39,3.08c1.15,1.15,2.22,1.29,3.09,1.4c0.74,0.1,1.27,0.17,1.93,0.83c0.67,0.67,0.74,1.2,0.83,1.93  c0.11,0.87,0.26,1.95,1.41,3.1c0.05,0.05,0.11,0.1,0.16,0.15C34.46,30.4,33.58,30.88,32.68,31.33z M37.09,28.74  c-0.18-0.11-0.35-0.24-0.53-0.42c-0.67-0.67-0.74-1.21-0.84-1.94c-0.11-0.86-0.25-1.94-1.4-3.09c-1.15-1.15-2.22-1.29-3.09-1.4  c-0.74-0.1-1.27-0.17-1.93-0.83c-0.66-0.66-0.73-1.19-0.83-1.92c-0.11-0.87-0.25-1.94-1.4-3.09c-0.24-0.24-0.49-0.43-0.74-0.61  c0.58-0.75,1.18-1.46,1.82-2.11c0.33,0.11,0.65,0.29,1,0.64c0.67,0.67,0.74,1.2,0.83,1.93c0.11,0.86,0.25,1.94,1.4,3.08  c1.15,1.15,2.22,1.29,3.09,1.4c0.74,0.1,1.27,0.17,1.93,0.83c0.67,0.67,0.74,1.2,0.83,1.93c0.11,0.87,0.26,1.95,1.41,3.1  c0.29,0.29,0.58,0.51,0.86,0.69C38.74,27.57,37.93,28.17,37.09,28.74z M41.06,25.47c-0.33-0.11-0.65-0.29-1-0.64  c-0.67-0.67-0.74-1.21-0.84-1.94c-0.11-0.87-0.26-1.94-1.4-3.09c-1.15-1.15-2.22-1.29-3.09-1.4c-0.74-0.1-1.27-0.17-1.93-0.83  c-0.66-0.66-0.73-1.19-0.83-1.92c-0.11-0.87-0.25-1.94-1.4-3.09c-0.3-0.3-0.59-0.52-0.88-0.7c0.75-0.67,1.51-1.3,2.28-1.89  c0.2,0.1,0.42,0.26,0.68,0.51c0.67,0.67,0.74,1.2,0.83,1.94c0.11,0.86,0.25,1.94,1.39,3.08c1.15,1.15,2.22,1.29,3.09,1.4  c0.74,0.1,1.27,0.17,1.93,0.83c0.67,0.67,0.74,1.2,0.83,1.93c0.11,0.87,0.26,1.95,1.41,3.1c0.26,0.26,0.53,0.46,0.8,0.65  C42.34,24.1,41.73,24.79,41.06,25.47z M43.54,21.34c-0.67-0.67-0.74-1.21-0.84-1.94c-0.11-0.86-0.25-1.94-1.4-3.09  c-1.15-1.15-2.22-1.29-3.09-1.4c-0.74-0.1-1.27-0.17-1.93-0.83c-0.66-0.66-0.73-1.19-0.83-1.92c-0.11-0.87-0.25-1.94-1.4-3.09  c-0.12-0.12-0.24-0.22-0.36-0.32c1.06-0.71,2.13-1.34,3.17-1.88c1.89,4.94,5.33,8.39,10.27,10.27c-0.8,1.55-1.79,3.13-2.96,4.7  C43.98,21.72,43.77,21.57,43.54,21.34z M42.59,8.41c-0.78-0.78-0.78-2.05,0-2.83c0.78-0.78,2.05-0.78,2.83,0  c0.78,0.78,0.78,2.05,0,2.83C45.02,8.8,44.51,9,44,9S42.98,8.8,42.59,8.41z"/><text x="0" y="69" fill="#000000" font-size="5px" font-weight="bold" font-family="'Helvetica Neue', Helvetica, Arial-Unicode, Arial, Sans-serif">Created by Gofficon</text><text x="0" y="74" fill="#000000" font-size="5px" font-weight="bold" font-family="'Helvetica Neue', Helvetica, Arial-Unicode, Arial, Sans-serif">from the Noun Project</text></svg>