<svg xmlns="http://www.w3.org/2000/svg" xmlns:xlink="http://www.w3.org/1999/xlink" version="1.1" x="0px" y="0px" viewBox="0 0 54 67.5" style="enable-background:new 0 0 54 54;" xml:space="preserve"><path d="M3,33h4h20.18c0.41,1.16,1.51,2,2.82,2h4h6c0.55,0,1-0.45,1-1v-1.82c1.84-1.06,3-3.03,3-5.18c0-2.17-1.16-4.12-3-5.19V20  c0-0.55-0.45-1-1-1h-6h-4c-1.3,0-2.4,0.84-2.82,2H7H3c-0.55,0-1,0.45-1,1v10C2,32.55,2.45,33,3,33z M41,24.35  c0.63,0.72,1,1.65,1,2.65c0,0.99-0.37,1.93-1,2.65V24.35z M35,21h4v1.13c-0.05,0.18-0.05,0.37,0,0.54V33h-4V21z M29,22  c0-0.55,0.45-1,1-1h3v12h-3c-0.55,0-1-0.45-1-1V22z M8,23h19v8H8V23z M4,23h2v8H4V23z M51,28h-4c-0.55,0-1-0.45-1-1s0.45-1,1-1h4  c0.55,0,1,0.45,1,1S51.55,28,51,28z M45.29,23.71c-0.39-0.39-0.39-1.02,0-1.41l3-3c0.39-0.39,1.02-0.39,1.41,0s0.39,1.02,0,1.41  l-3,3C46.51,23.9,46.26,24,46,24S45.49,23.9,45.29,23.71z M45.29,30.29c0.39-0.39,1.02-0.39,1.41,0l3,3c0.39,0.39,0.39,1.02,0,1.41  C49.51,34.9,49.26,35,49,35s-0.51-0.1-0.71-0.29l-3-3C44.9,31.32,44.9,30.68,45.29,30.29z M20,27c0,0.55-0.45,1-1,1h-5  c-0.55,0-1-0.45-1-1s0.45-1,1-1h5C19.55,26,20,26.45,20,27z M25,27c0,0.55-0.45,1-1,1h-1c-0.55,0-1-0.45-1-1s0.45-1,1-1h1  C24.55,26,25,26.45,25,27z"/><text x="0" y="69" fill="#000000" font-size="5px" font-weight="bold" font-family="'Helvetica Neue', Helvetica, Arial-Unicode, Arial, Sans-serif">Created by Gofficon</text><text x="0" y="74" fill="#000000" font-size="5px" font-weight="bold" font-family="'Helvetica Neue', Helvetica, Arial-Unicode, Arial, Sans-serif">from the Noun Project</text></svg>