<svg xmlns="http://www.w3.org/2000/svg" xmlns:xlink="http://www.w3.org/1999/xlink" version="1.1" x="0px" y="0px" viewBox="0 0 54 67.5" style="enable-background:new 0 0 54 54;" xml:space="preserve"><path d="M8.95,25.86l2.85,23.5c0.18,1.5,1.46,2.64,2.98,2.64h24.46c1.51,0,2.79-1.13,2.98-2.64l2.85-23.5  c0.61-5.01-2.26-9.78-6.97-11.59L33,12.31V10h1c0.55,0,1-0.45,1-1s-0.45-1-1-1V3c0-0.55-0.45-1-1-1H21c-0.55,0-1,0.45-1,1v2h-0.5  C17.02,5,15,7.02,15,9.5c0,1.82,1.1,3.39,2.66,4.1l-1.74,0.67C11.2,16.08,8.34,20.85,8.95,25.86z M31,4h1v4h-1V4z M28,4h1v4h-1V4z   M31,10v2h-8v-2H31z M25,4h1v4h-1V4z M22,4h1v4h-1V4z M17,9.5C17,8.12,18.12,7,19.5,7H20v1c-0.55,0-1,0.45-1,1s0.45,1,1,1h1v2h-1.5  C18.12,12,17,10.88,17,9.5z M22.19,14h9.63l5.55,2.14c3.85,1.48,6.2,5.38,5.7,9.48l-2.85,23.5c-0.06,0.5-0.49,0.88-0.99,0.88H14.77  c-0.5,0-0.93-0.38-0.99-0.88l-2.85-23.5c-0.5-4.1,1.85-8,5.7-9.48L22.19,14z M15.22,20.6c-0.36-0.42-0.3-1.05,0.12-1.41  c0.6-0.51,1.28-0.91,2.02-1.19c0.52-0.2,1.09,0.06,1.29,0.57c0.2,0.52-0.06,1.09-0.57,1.29c-0.53,0.2-1.01,0.49-1.44,0.85  c-0.19,0.16-0.42,0.24-0.65,0.24C15.7,20.96,15.42,20.84,15.22,20.6z M14.31,22.05c0.53,0.14,0.85,0.69,0.72,1.22  c-0.16,0.61-0.2,1.24-0.13,1.87l2.64,21.74c0.07,0.55-0.32,1.05-0.87,1.11C16.62,48,16.58,48,16.54,48c-0.5,0-0.93-0.37-0.99-0.88  l-2.64-21.74c-0.11-0.88-0.05-1.76,0.18-2.62C13.23,22.23,13.77,21.91,14.31,22.05z"/><text x="0" y="69" fill="#000000" font-size="5px" font-weight="bold" font-family="'Helvetica Neue', Helvetica, Arial-Unicode, Arial, Sans-serif">Created by Gofficon</text><text x="0" y="74" fill="#000000" font-size="5px" font-weight="bold" font-family="'Helvetica Neue', Helvetica, Arial-Unicode, Arial, Sans-serif">from the Noun Project</text></svg>