<svg xmlns="http://www.w3.org/2000/svg" xmlns:xlink="http://www.w3.org/1999/xlink" version="1.1" x="0px" y="0px" viewBox="0 0 54 67.5" style="enable-background:new 0 0 54 54;" xml:space="preserve"><path d="M27,2c-2.76,0-5,2.24-5,5v1c-0.55,0-1,0.45-1,1v5.78c-2.61,5.31-4,11.24-4,17.16V49c0,1.65,1.35,3,3,3h14c1.65,0,3-1.35,3-3  V31.94c0-5.92-1.39-11.85-4-17.16V9c0-0.55-0.45-1-1-1V7C32,4.24,29.76,2,27,2z M24,7c0-1.65,1.35-3,3-3s3,1.35,3,3v1h-6V7z M23,13  h4c0.55,0,1-0.45,1-1s-0.45-1-1-1h-4v-1h8v4h-8V13z M35,31.94V49c0,0.55-0.45,1-1,1H20c-0.55,0-1-0.45-1-1V31.94  c0-5.49,1.25-10.99,3.62-15.94h8.75C33.75,20.95,35,26.45,35,31.94z"/><text x="0" y="69" fill="#000000" font-size="5px" font-weight="bold" font-family="'Helvetica Neue', Helvetica, Arial-Unicode, Arial, Sans-serif">Created by Gofficon</text><text x="0" y="74" fill="#000000" font-size="5px" font-weight="bold" font-family="'Helvetica Neue', Helvetica, Arial-Unicode, Arial, Sans-serif">from the Noun Project</text></svg>