<svg xmlns="http://www.w3.org/2000/svg" xmlns:xlink="http://www.w3.org/1999/xlink" version="1.1" x="0px" y="0px" viewBox="0 0 54 67.5" style="enable-background:new 0 0 54 54;" xml:space="preserve"><path d="M35,2c-9.37,0-17,7.63-17,17c0,3.53,1.08,6.8,2.93,9.52l-8.85,8.95c-1.7,1.72-3.83,2.96-6.16,3.6  C3.61,41.7,2.07,43.62,2,45.96c-0.05,1.51,0.52,2.96,1.55,3.99l0.48,0.48C5.05,51.45,6.36,52,7.75,52c0.1,0,0.21,0,0.31-0.01  c2.31-0.13,4.26-1.71,4.87-3.93c0.63-2.32,1.87-4.44,3.58-6.14l8.94-8.87C28.17,34.91,31.46,36,35,36c9.37,0,17-7.63,17-17  S44.37,2,35,2z M15.09,40.5c-1.95,1.94-3.37,4.37-4.1,7.05c-0.43,1.59-1.84,2.37-3.05,2.44c-0.65,0.05-1.62-0.1-2.49-0.97  l-0.48-0.48c-0.63-0.63-1-1.57-0.97-2.52c0.04-1.44,1-2.63,2.44-3.02c2.67-0.73,5.11-2.15,7.06-4.12l8.67-8.76  c0.52,0.6,1.09,1.17,1.69,1.69L15.09,40.5z M35,34c-8.27,0-15-6.73-15-15S26.73,4,35,4c8.27,0,15,6.73,15,15S43.27,34,35,34z M35,5  c-7.72,0-14,6.28-14,14s6.28,14,14,14c7.72,0,14-6.28,14-14S42.72,5,35,5z M35,31c-6.62,0-12-5.38-12-12S28.38,7,35,7  c6.62,0,12,5.38,12,12S41.62,31,35,31z M10,46c0,1.1-0.9,2-2,2s-2-0.9-2-2s0.9-2,2-2S10,44.9,10,46z M38.71,20.29  c-1.11-1.11-2.51-1.96-3.76-2.72C33.5,16.69,32,15.78,32,15c0-1.6-1.07-2.71-2.61-2.71C27.23,12.29,25,14.42,25,18  c0,4.86,3.34,10.1,7.61,11.92c0.66,0.28,1.35,0.42,2.02,0.42c1.74,0,3.43-0.9,4.57-2.55c1.65-2.39,1.5-5.42-0.36-7.36L38.71,20.29z   M37.55,26.65c-0.79,1.14-2.35,2.2-4.16,1.43C29.87,26.57,27,22.05,27,18c0-2.53,1.43-3.71,2.39-3.71c0.28,0,0.61,0.08,0.61,0.71  c0,1.9,1.9,3.06,3.91,4.28c1.2,0.73,2.45,1.49,3.38,2.42l0.1,0.11C38.8,23.28,38.49,25.3,37.55,26.65z M34,21c-1.65,0-3,1.35-3,3  s1.35,3,3,3s3-1.35,3-3S35.65,21,34,21z M34,25c-0.55,0-1-0.45-1-1c0-0.55,0.45-1,1-1s1,0.45,1,1C35,24.55,34.55,25,34,25z   M34.29,9.29c-0.94,0.94-0.94,2.47,0,3.41l6,6c0.46,0.46,1.06,0.71,1.71,0.71c0.64,0,1.25-0.25,1.71-0.71  c0.94-0.94,0.94-2.47,0-3.41l-6-6C36.8,8.38,35.21,8.38,34.29,9.29z M42.29,17.29c-0.21,0.21-0.38,0.21-0.59,0l-6-6  c-0.16-0.16-0.16-0.42,0-0.58c0.11-0.11,0.23-0.12,0.29-0.12c0.06,0,0.19,0.02,0.29,0.12l6,6C42.45,16.87,42.45,17.13,42.29,17.29z"/><text x="0" y="69" fill="#000000" font-size="5px" font-weight="bold" font-family="'Helvetica Neue', Helvetica, Arial-Unicode, Arial, Sans-serif">Created by Gofficon</text><text x="0" y="74" fill="#000000" font-size="5px" font-weight="bold" font-family="'Helvetica Neue', Helvetica, Arial-Unicode, Arial, Sans-serif">from the Noun Project</text></svg>