<svg xmlns="http://www.w3.org/2000/svg" xmlns:xlink="http://www.w3.org/1999/xlink" version="1.1" x="0px" y="0px" viewBox="0 0 54 67.5" style="enable-background:new 0 0 54 54;" xml:space="preserve"><path d="M8,52h32c1.65,0,3-1.35,3-3v-2h5c1.65,0,3-1.35,3-3V30c0-1.65-1.35-3-3-3h-5v-2.18c1.16-0.41,2-1.51,2-2.82  c0-1.65-1.35-3-3-3H6c-1.65,0-3,1.35-3,3c0,1.3,0.84,2.4,2,2.82V49C5,50.65,6.35,52,8,52z M41,28v18v3c0,0.55-0.45,1-1,1H8  c-0.55,0-1-0.45-1-1V25h34V28z M48,29c0.55,0,1,0.45,1,1v14c0,0.55-0.45,1-1,1h-5V29H48z M6,21h36c0.55,0,1,0.45,1,1s-0.45,1-1,1H6  c-0.55,0-1-0.45-1-1S5.45,21,6,21z M30.71,6.71c-0.11,0.11-2.39,2.48-0.88,4.74c0.92,1.38,1.24,2.64,0.96,3.72  c-0.31,1.18-1.24,1.67-1.34,1.73C29.3,16.97,29.15,17,29,17c-0.37,0-0.72-0.2-0.9-0.55c-0.25-0.49-0.05-1.09,0.45-1.34  c0,0,0.23-0.15,0.31-0.48c0.11-0.49-0.13-1.23-0.69-2.07c-1.94-2.91-0.11-6.02,1.12-7.26c0.39-0.39,1.02-0.39,1.41,0  C31.1,5.68,31.1,6.31,30.71,6.71z M24.86,3.51c-0.74,1.24-2.37,4.91-1.03,6.93c1.94,2.91,0.77,5.37-0.12,6.26  C23.51,16.9,23.26,17,23,17s-0.51-0.1-0.71-0.29c-0.39-0.39-0.39-1.02,0-1.41c0.13-0.14,1.35-1.53-0.12-3.74  c-2.32-3.49,0.84-8.84,0.97-9.07c0.29-0.47,0.9-0.63,1.37-0.34C24.99,2.43,25.14,3.04,24.86,3.51z M18.71,6.71  c-0.11,0.11-2.39,2.48-0.88,4.74c0.92,1.38,1.24,2.64,0.96,3.72c-0.31,1.18-1.24,1.67-1.34,1.73C17.3,16.97,17.15,17,17,17  c-0.37,0-0.72-0.2-0.9-0.55c-0.25-0.49-0.05-1.09,0.45-1.34c0,0,0.23-0.15,0.31-0.48c0.11-0.49-0.13-1.23-0.69-2.07  c-1.94-2.91-0.11-6.02,1.12-7.26c0.39-0.39,1.02-0.39,1.41,0C19.1,5.68,19.1,6.31,18.71,6.71z"/><text x="0" y="69" fill="#000000" font-size="5px" font-weight="bold" font-family="'Helvetica Neue', Helvetica, Arial-Unicode, Arial, Sans-serif">Created by Gofficon</text><text x="0" y="74" fill="#000000" font-size="5px" font-weight="bold" font-family="'Helvetica Neue', Helvetica, Arial-Unicode, Arial, Sans-serif">from the Noun Project</text></svg>