<svg xmlns="http://www.w3.org/2000/svg" xmlns:xlink="http://www.w3.org/1999/xlink" version="1.1" x="0px" y="0px" viewBox="0 0 54 67.5" style="enable-background:new 0 0 54 54;" xml:space="preserve"><path d="M2.29,42.47l4.24,4.24C6.72,46.89,6.97,47,7.24,47s0.52-0.11,0.71-0.29l25.37-25.37l5.5,11c0.14,0.29,0.42,0.49,0.73,0.54  c0.05,0.01,0.11,0.01,0.16,0.01c0.26,0,0.52-0.1,0.71-0.29l11.29-11.29c0.23-0.23,0.33-0.55,0.28-0.87  c-0.05-0.32-0.25-0.59-0.54-0.73l-10.99-5.5l0.67-0.67c0.57-0.57,0.88-1.32,0.88-2.12c0-0.8-0.31-1.55-0.88-2.12l-1.41-1.41  c-1.13-1.13-3.11-1.13-4.24,0l-0.7,0.71c-0.38-0.37-1.04-0.37-1.41,0l-5.65,5.65c-0.39,0.39-0.39,1.02,0,1.41L2.29,41.06  C1.9,41.45,1.9,42.08,2.29,42.47z M49.31,20.86l-9.33,9.33l-4.7-9.41l4.63-4.63L49.31,20.86z M36.88,9.29  c0.38-0.38,1.03-0.38,1.41,0l1.41,1.41c0.19,0.19,0.29,0.44,0.29,0.71c0,0.27-0.1,0.52-0.29,0.7L39,12.82L36.18,10L36.88,9.29z   M34.06,10.71l4.23,4.23l-4.23,4.23l-4.23-4.23L34.06,10.71z M29.12,17.06l2.82,2.82l-6.68,6.68l-4.7-0.94L29.12,17.06z   M18.86,27.32l4.7,0.94l-5.36,5.36l-4.7-0.94L18.86,27.32z M11.8,34.38l4.7,0.94l-9.27,9.27l-2.82-2.82L11.8,34.38z"/><text x="0" y="69" fill="#000000" font-size="5px" font-weight="bold" font-family="'Helvetica Neue', Helvetica, Arial-Unicode, Arial, Sans-serif">Created by Gofficon</text><text x="0" y="74" fill="#000000" font-size="5px" font-weight="bold" font-family="'Helvetica Neue', Helvetica, Arial-Unicode, Arial, Sans-serif">from the Noun Project</text></svg>