<svg xmlns="http://www.w3.org/2000/svg" xmlns:xlink="http://www.w3.org/1999/xlink" version="1.1" x="0px" y="0px" viewBox="0 0 54 67.5" style="enable-background:new 0 0 54 54;" xml:space="preserve"><path d="M42.23,36.76c-1.31-1.31-3.3-1.5-4.83-0.61L19.73,18.47l2.28-2.28c1.06-1.05,1.17-2.74,0.26-3.93l-6.71-8.77  c-0.52-0.68-1.32-1.11-2.18-1.17c-0.86-0.05-1.7,0.26-2.31,0.87l-8.04,8.04c-0.61,0.61-0.93,1.45-0.87,2.31  c0.06,0.86,0.48,1.65,1.17,2.17l8.77,6.71c0.54,0.41,1.18,0.61,1.81,0.61c0.77,0,1.54-0.29,2.12-0.87l2.28-2.28l17.68,17.68  c-0.89,1.53-0.7,3.52,0.61,4.83l8.44,8.44c0.78,0.78,1.8,1.16,2.82,1.16s2.04-0.39,2.82-1.16c1.55-1.55,1.55-4.08,0-5.63  L42.23,36.76z M14.62,20.76c-0.35,0.35-0.91,0.39-1.3,0.09l-8.77-6.71c-0.23-0.17-0.37-0.43-0.39-0.72  c-0.02-0.29,0.08-0.56,0.29-0.77l8.04-8.04c0.19-0.19,0.43-0.29,0.7-0.29c0.02,0,0.05,0,0.07,0c0.29,0.02,0.54,0.16,0.72,0.39  l6.71,8.77c0.3,0.39,0.26,0.95-0.09,1.3L14.62,20.76z M38.01,38.17c0.39-0.39,0.9-0.58,1.4-0.58c0.51,0,1.01,0.19,1.4,0.58  l-2.81,2.81C37.24,40.2,37.24,38.95,38.01,38.17z M39.42,42.39l2.81-2.81l5.62,5.62l-2.81,2.81L39.42,42.39z M49.26,49.42  c-0.77,0.77-2.03,0.77-2.8,0l2.81-2.81C50.03,47.39,50.03,48.65,49.26,49.42z M18.32,12.84c0.39,0.39,0.39,1.02,0,1.41  c-0.2,0.2-0.45,0.29-0.71,0.29s-0.51-0.1-0.71-0.29l-4.92-4.92c-0.39-0.39-0.39-1.02,0-1.41s1.02-0.39,1.41,0L18.32,12.84z   M16.21,14.95c0.39,0.39,0.39,1.02,0,1.41c-0.2,0.2-0.45,0.29-0.71,0.29s-0.51-0.1-0.71-0.29l-4.92-4.92  c-0.39-0.39-0.39-1.02,0-1.41s1.02-0.39,1.41,0L16.21,14.95z M14.1,17.06c0.39,0.39,0.39,1.02,0,1.41c-0.2,0.2-0.45,0.29-0.71,0.29  s-0.51-0.1-0.71-0.29l-4.92-4.92c-0.39-0.39-0.39-1.02,0-1.41s1.02-0.39,1.41,0L14.1,17.06z M24.27,28.32l-7.83,7.83  c-1.53-0.89-3.52-0.7-4.83,0.61L3.17,45.2C2.41,45.95,2,46.95,2,48.02c0,1.06,0.41,2.07,1.17,2.82C3.94,51.61,4.96,52,5.98,52  C7,52,8.02,51.61,8.8,50.83l0.7-0.7c0,0,0,0,0,0s0,0,0,0l7.74-7.74c0.75-0.75,1.17-1.75,1.17-2.82c0-0.72-0.2-1.4-0.56-2.01  l7.83-7.83c0.39-0.39,0.39-1.02,0-1.41S24.66,27.93,24.27,28.32z M4.58,49.42C4.21,49.04,4,48.55,4,48.02c0-0.53,0.21-1.02,0.58-1.4  l2.81,2.81C6.61,50.19,5.35,50.19,4.58,49.42z M8.8,48.01L5.99,45.2l5.62-5.62l2.81,2.81L8.8,48.01z M15.83,40.97l-2.81-2.81  c0.39-0.38,0.89-0.58,1.4-0.58c0.51,0,1.02,0.19,1.4,0.58c0.37,0.38,0.58,0.87,0.58,1.4C16.41,40.1,16.2,40.6,15.83,40.97z   M50.65,11.91l-10.06,3.77c-0.36,0.14-0.77,0.05-1.05-0.23l-1-1c-0.27-0.27-0.36-0.69-0.23-1.05l3.77-10.05  c0.17-0.46-0.02-0.99-0.45-1.23C41.2,1.89,40.66,2,40.36,2.39l-8.08,10.57c-0.91,1.19-0.8,2.88,0.26,3.93l1.58,1.58l-5.85,5.85  c-0.39,0.39-0.39,1.02,0,1.41c0.2,0.2,0.45,0.29,0.71,0.29s0.51-0.1,0.71-0.29l5.85-5.85l1.58,1.58c0.58,0.58,1.34,0.87,2.12,0.87  c0.64,0,1.28-0.2,1.81-0.61l10.57-8.08c0.39-0.3,0.51-0.84,0.27-1.28C51.63,11.93,51.11,11.74,50.65,11.91z M39.82,20.14  c-0.39,0.3-0.95,0.26-1.3-0.09l-4.57-4.57c0,0,0,0,0,0c-0.35-0.35-0.39-0.91-0.09-1.3l3.98-5.21l-1.4,3.73  c-0.41,1.09-0.14,2.34,0.68,3.16l1,1c0.83,0.83,2.07,1.09,3.16,0.68l3.73-1.4L39.82,20.14z"/><text x="0" y="69" fill="#000000" font-size="5px" font-weight="bold" font-family="'Helvetica Neue', Helvetica, Arial-Unicode, Arial, Sans-serif">Created by Gofficon</text><text x="0" y="74" fill="#000000" font-size="5px" font-weight="bold" font-family="'Helvetica Neue', Helvetica, Arial-Unicode, Arial, Sans-serif">from the Noun Project</text></svg>